<?xml version="1.0" encoding="UTF-8"?>
<!DOCTYPE svg PUBLIC "-//W3C//DTD SVG 1.1//EN" "http://www.w3.org/Graphics/SVG/1.1/DTD/svg11.dtd">
<!-- Creator: CorelDRAW X7 -->
<svg xmlns="http://www.w3.org/2000/svg" xml:space="preserve" width="282.222mm" height="282.222mm" version="1.1" style="shape-rendering:geometricPrecision; text-rendering:geometricPrecision; image-rendering:optimizeQuality; fill-rule:evenodd; clip-rule:evenodd"
viewBox="0 0 28222 28222"
 xmlns:xlink="http://www.w3.org/1999/xlink">
 <defs>
  <style type="text/css">
   <![CDATA[
    .fil0 {fill:#C4C5C5;fill-rule:nonzero;fill-opacity:0.141176}
   ]]>
  </style>
 </defs>
 <g id="Objects">
  <metadata id="CorelCorpID_0Corel-Layer"/>
  <g id="_343258048">
   <path class="fil0" d="M12283 0c-93,228 -190,455 -290,679l-4 7 -10 4c-2,1 -4,1 -6,2 -42,20 -100,49 -171,84l-4 2 -1873 -22 15 -28c60,-109 223,-345 250,-362l583 -366 -219 0 -337 211 33 -63c25,-49 50,-99 75,-148l-131 0c-30,58 -60,117 -90,175l-13 24 -18 -20c-58,-61 -118,-121 -179,-179l-171 0c105,95 205,194 301,298l10 10 -7 12c-73,139 -135,254 -195,362l-11 20 -691 -568 -1 -11 5 -123 -117 0 -2 68 -227 -68 -406 0 628 189 -1 38 -12 5c-486,196 -952,436 -1386,713 -9,6 -16,13 -21,21l-14 25 -18 -22c-187,-230 -368,-473 -554,-742l-13 -20 21 -9c141,-63 281,-129 421,-198l-267 0c-75,35 -150,70 -226,103l-15 7 -9 -14c-22,-32 -43,-64 -65,-96l-139 0c551,843 1156,1597 1909,2228l46 39 -60 -5c-894,-62 -1760,-411 -2439,-983 -418,-352 -764,-789 -1018,-1279l-130 0c266,527 638,1001 1087,1379 652,549 1490,900 2359,988l0 0 75 8 -69 29c-622,269 -1180,476 -1708,632 -9,3 -17,5 -26,8l-28 8 -6 -3c-379,-168 -753,-365 -1113,-588l-6 -4 -417 -721 -988 -1705 7 -10 13 -21 -141 0c-239,369 -479,714 -691,1014l-5 7 -9 1 -2186 197c-29,3 -607,-338 -1168,-718l0 191c341,244 696,468 1061,669 51,8 639,-54 1158,-109 367,-39 748,-79 1014,-103l42 -4 -24 35c-70,98 -140,197 -210,295 -128,180 -261,366 -390,549 -70,101 -140,200 -206,297l-6 9 -22 -2c-8,-3 -16,-3 -25,-1l-2 1 -3 0c-830,-30 -1653,-250 -2387,-637l0 131c718,369 1521,583 2327,620l0 0 35 2 -20 28c-162,241 -303,460 -431,671l-3 6 -6 2c-483,196 -1041,150 -1493,-122l-6 -3 -2 -6c-129,-339 -264,-682 -401,-1020l0 309c101,255 200,508 295,758l4 10 -6 9c-11,14 -15,30 -12,48 6,32 9,64 9,95 0,149 -67,290 -182,386 -34,28 -70,51 -108,69l0 130c182,-73 326,-230 380,-425l16 -58 21 56 0 0c151,407 301,824 444,1241l29 84 -61 -64c-232,-242 -502,-447 -735,-616 -31,-23 -63,-46 -94,-68l0 143 38 27c292,212 625,471 880,791l25 32 -40 0c-281,1 -572,32 -903,98l0 119c326,-65 614,-98 888,-100l0 0 39 -1 -23 32c-277,373 -573,744 -904,1130l0 179c366,-423 707,-847 1012,-1260l8 -11 12 3 0 0c6,2 12,2 18,2l4 0 4 2c1,0 2,1 4,1l20 6 -5 18c-66,275 -133,556 -203,859l-2 6 -4 4c-15,12 -18,27 -18,38 0,7 2,14 4,21l2 6 -1 5c-50,215 -93,406 -132,582l-6 27 -23 -15c-211,-129 -444,-213 -693,-250l-1 0 0 118c241,36 469,124 678,261l11 8 -21 92c-3,8 -5,16 -5,24l-1 5c-42,191 -86,397 -135,628l-7 31 -25 -20c-159,-131 -325,-255 -495,-372l0 142c167,117 329,241 484,371l9 8 -3 11c-54,258 -107,519 -159,777l-5 27 -24 -14c-99,-61 -200,-119 -302,-174l0 133c98,54 194,111 290,170l11 7 -2 13c-25,126 -50,252 -74,379l-1 3 -2 2c-5,10 -7,21 -6,31l1 4 -1 3c-48,251 -96,504 -141,751l-9 50 -27 -43c-13,-20 -26,-41 -39,-61l0 224c10,18 20,36 30,54l3 6 -1 6c-11,59 -21,117 -32,176l0 677c20,-114 40,-235 64,-369l3 -20 20 5c545,117 1106,204 1666,258l24 2 -7 23c-126,404 -275,806 -446,1192l-2 6 -50 34 -11 -6 0 0c-428,-261 -852,-537 -1261,-819l0 139c202,135 811,541 1140,743l26 15 -25 17c-371,252 -754,494 -1141,723l0 136c398,-234 791,-482 1171,-738l0 0 59 -40 -30 64c-243,513 -526,1010 -841,1476l-6 9 -353 -3 0 116 273 3 0 0 -21 30c-82,117 -166,232 -252,345l0 216c152,-194 300,-395 440,-600l2 -3c6,-6 10,-12 13,-19l2 -3c467,-688 858,-1429 1163,-2203l0 0 7 -20 20 10c290,150 594,314 901,488l16 9 -8 16c-57,111 -119,225 -185,340l-2 2c-607,809 -1962,2392 -1962,2392 -130,-22 -279,-48 -407,-71l0 261 87 -86c1,-1 2,-2 2,-3l10 -12 38 8 7 17c112,214 225,440 335,669l28 58 -55 -33 0 0c-150,-89 -300,-176 -452,-262l0 134c38,22 77,44 117,68l8 4 95 425 -220 166 0 145 248 -187 0 0 269 1203 -33 -11c-167,-60 -328,-117 -484,-173l0 124c181,65 361,129 542,193l17 6 -5 18c-72,289 -171,569 -292,834l-6 14 -15 -3c-81,-17 -161,-34 -241,-51l0 120c75,16 151,32 226,47l18 4 -65 563 -179 -5 0 117 211 6 243 942 0 0 -3 6c-1,3 -2,5 -3,8l-3 11 -445 122 0 121 524 -144 0 0 681 651 -84 -29c-370,-129 -736,-281 -1087,-452l-34 -16 0 126c557,252 1496,583 1496,583l-4 28c-23,158 -46,304 -70,447l-2 10 -9 4c-1,1 -2,1 -4,2l-1407 754 0 132 1396 -748 -7 39c-62,360 -133,719 -210,1067l-1 7 0 0 -6 4c-41,31 -142,117 -240,200 -101,86 -196,167 -237,198 -3,3 -6,5 -9,8l-11 12 -14 -9c-222,-149 -444,-306 -661,-467l0 141c235,173 475,340 718,500 6,4 12,6 19,8l4 1 4 3c6,5 14,9 23,11 841,183 1704,302 2564,351l52 3 -41 32c-238,185 -593,465 -935,753l-7 7 -10 -3c-805,-215 -1609,-469 -2391,-755l0 158c382,328 753,678 1104,1041l0 0 36 38 -52 -5c-370,-34 -734,-105 -1088,-210l0 118c541,156 1105,235 1667,229l0 0 49 0 -36 34c-20,19 -40,39 -60,58 -51,49 -101,98 -151,147 -218,213 -894,801 -942,835l-6 5 -521 -70 0 113 324 44 -104 24c-73,17 -146,32 -220,45l0 115c20,-3 40,-7 61,-11l101 -19 -88 55c-24,15 -49,31 -74,46l0 132 25 -15 -23 56 0 0 -2 4 0 609c62,147 168,279 309,375l43 29 -51 6c-101,13 -201,25 -301,37l0 113c111,-13 221,-26 331,-40l0 0 52 -6 -35 39c-54,60 -106,122 -157,185l146 0c64,-76 130,-149 199,-220 5,-5 755,-129 1124,-188l85 -14 -71 49c-171,118 -337,243 -497,373l220 0c162,-137 324,-267 463,-361l41 -28 -11 48c-9,38 -37,161 -78,341l128 0c23,-146 52,-291 89,-434 2,-5 381,-102 569,-137l75 -14 -60 48c-200,162 -387,343 -557,537l217 0c275,-273 630,-615 654,-625 36,-14 74,-27 112,-36 79,-20 853,-175 1030,-215l56 -13 -37 44c-228,271 -445,554 -650,845l137 0c152,-213 310,-420 475,-622l83 -102 -50 122c-82,198 -158,399 -230,602l118 0c40,-110 80,-220 123,-329 23,-59 48,-124 81,-202l10 -26 596 557 166 0 -225 -211 6 -13c56,-116 238,-504 390,-830l0 0 4 -9 10 -2c750,-116 1952,-300 3164,-487 1322,-203 2688,-413 3459,-532l172 -27 -5350 2111 312 0 5489 -2166 0 0 8 62c27,197 59,432 93,672l3 26 -19 17c-317,277 -684,477 -1092,592 -6,2 -11,4 -18,8l-4 3c-577,272 -1161,535 -1752,786l290 0c501,-216 998,-441 1489,-672l19 -9 19 7c2,1 4,2 6,3 444,125 863,325 1244,595l17 12 10 64 174 0 2 -1 3 1 235 0c-102,-57 -204,-114 -305,-172l-22 -13 -4 -23c-56,-365 -246,-1695 -277,-1928l0 0 -10 -69 68 14c270,58 535,125 786,201 1022,310 2032,785 3008,1244 417,196 848,398 1280,588l3 1c7,5 14,8 22,10l3 1c113,49 229,98 343,146l283 0c-30,-12 -60,-24 -90,-36l-13 -5 1 -14 127 -2620 850 -223 4 19c220,951 427,1917 619,2879l118 0c-189,-952 -394,-1911 -612,-2855l-7 -31 31 7c808,198 1614,444 2395,732l20 7 -10 20c-161,334 -737,1404 -1134,2120l147 0c118,-205 234,-412 346,-619l9 -16 1380 635 277 0 -1601 -737 9 -19c21,-38 41,-76 62,-114l6066 558 52 35 -15 16c-14,17 -104,117 -235,261l165 0 -1 -3 0 0 7 -8c31,-35 62,-71 93,-106l64 -74 75 191 125 0 -114 -290 14 -15c249,-290 489,-577 715,-856l0 -186c-171,213 -348,428 -526,640l-14 17 -15 -17c-760,-840 -1577,-1647 -2428,-2397l-28 -25 36 -8c271,-64 549,-137 826,-218l6 -2 6 2 1875 667 3 10c93,378 181,760 259,1136l0 -548c-116,-512 -246,-1025 -387,-1530l-6 -22 22 -2c125,-15 249,-34 371,-57l0 -119c-136,27 -273,48 -409,63l-16 2 -5 -16 0 0c-137,-480 -289,-967 -451,-1447l-26 -76 57 55c286,275 571,558 850,846l0 -168c-323,-331 -654,-655 -986,-969l-4 -3 -1 -5c-117,-333 -243,-673 -374,-1010l-12 -30 32 3c446,44 896,93 1345,148l0 -115c-684,-82 -1427,-164 -1427,-164 -86,-217 -174,-432 -261,-639l-10 -25 26 -2c522,-41 1068,-64 1672,-71l0 -131c-935,10 -1871,62 -2796,192l-130 19 128 -60c6,-3 12,-5 17,-8 895,-410 1827,-751 2781,-1017l0 -137c-1041,289 -2059,666 -3031,1125l-53 25 27 -52 0 0c245,-459 479,-914 697,-1352 53,-105 90,-226 173,-311 77,-79 173,-136 262,-200 61,-44 117,-92 178,-135 79,-54 159,-107 239,-159 368,-233 759,-428 1166,-583l6 -1 18 3c5,1 10,2 15,3 22,5 43,-1 59,-16l6 -5 8 0 230 5 0 -134 -262 -5 0 0c-16,-1 -30,4 -41,12l-7 6 -18 -3c-6,-2 -8,-2 -8,-2l-4 -1c-366,-71 -738,-113 -1106,-122l-49 -2 37 -32c341,-306 904,-684 1315,-948 50,-32 98,-62 143,-91l0 -229c-498,315 -973,668 -1420,1056l-67 58 37 -81c54,-119 107,-239 160,-359 3,-6 6,-13 9,-20 98,-221 194,-443 289,-666 48,-111 95,-222 142,-334 24,-55 48,-111 71,-167 17,-38 30,-111 72,-128 75,-31 141,-69 213,-106 161,-82 326,-157 494,-225l0 -143c-207,81 -410,173 -606,276l-48 25 21 -49 0 0c177,-433 351,-874 516,-1309l3 -6 6 -4c35,-21 71,-41 108,-60l0 -149 -41 19 17 -45 24 -64 0 -378c-34,93 -69,186 -103,279l-21 56 -16 -58c-72,-253 -282,-449 -535,-499l-45 -9 37 -26c81,-58 155,-110 229,-164 144,-105 300,-221 454,-351l0 -174c-172,152 -351,287 -518,407l0 0 -109 79c-81,58 -162,116 -242,175l-51 37 21 -59c79,-217 118,-443 118,-672 0,-204 -31,-407 -94,-603l-10 -33 33 8c311,74 590,122 852,148l0 -134c-274,-28 -568,-82 -900,-163l0 0 -20 -5 6 -20c117,-383 185,-780 202,-1182l2 -49 32 37c241,278 466,548 678,815l0 -212c-182,-226 -371,-452 -568,-679l-23 -27 35 -5c196,-28 382,-84 556,-165l0 -148c-216,109 -447,175 -688,195l0 0 -10 1 -7 -8c-108,-123 -221,-249 -345,-385l-17 -18 21 -12c359,-209 706,-450 1032,-716l14 -12 0 -707c-9,-45 -18,-90 -27,-135l-18 -89 45 64 0 -243c-20,-33 -40,-67 -59,-101 -9,-16 -22,-26 -37,-30l-12 -3 -2 -12c-29,-146 -60,-304 -96,-495l-9 -43 38 22c58,36 118,70 177,103l0 -154c-81,-46 -162,-95 -242,-145l-7 -4 -1 -9c-129,-675 -251,-1363 -364,-2042l-8 -48 39 29c194,148 388,293 583,432l0 -162c-205,-148 -399,-296 -581,-435 -15,-11 -30,-15 -44,-11l-21 4 -3 -20c-42,-256 -84,-522 -126,-789l-1 -10 24 -26 13 7c245,139 491,274 739,407l0 -151c-269,-145 -536,-293 -800,-444l-8 -5 -2 -9c-26,-171 -86,-587 -134,-919l-5 -35 949 423 0 -127 -954 -425 0 0c-1,-1 -2,-1 -4,-1l-10 -4 -2 -12c-30,-214 -54,-381 -63,-445l-3 -27 27 6c216,45 427,99 627,160 127,39 255,81 382,125l0 -138c-369,-129 -708,-223 -1042,-290l-13 -3 -2 -14c-23,-173 -44,-329 -63,-479l-3 -25 1123 153 0 -114c-157,-19 -306,-37 -447,-55l-8 -1 -5 -5c-441,-490 -769,-1081 -959,-1717l-105 0c157,546 424,1173 863,1662l35 39 -52 -7 0 0c-541,-68 -1091,-140 -1634,-214l-17 -2 0 -17c6,-486 22,-975 48,-1461l-117 0c-26,480 -42,961 -47,1440l-1 22 -21 -3 0 0c-320,-44 -645,-89 -968,-135l-11 -2 -5 -10c-172,-427 -299,-865 -381,-1312l-118 0c78,435 198,861 359,1272l12 31 -33 -4c-268,-39 -504,-73 -723,-105l-13 -2 0 0 -3 -12c-108,-395 -228,-790 -360,-1180l-123 0c128,378 246,761 352,1144l8 29 -30 -4c-144,-22 -288,-44 -433,-66l-78 -11 -5 -5c-9,-8 -25,-17 -50,-10l0 0 -13 4 -167 -25 -4 -4c-6,-6 -13,-10 -22,-13 -82,-30 -101,-136 -114,-206l-2 -11c-25,-139 -40,-278 -52,-395 -13,-137 -21,-281 -23,-427l-116 0c3,192 16,384 39,574 2,24 5,49 8,75 11,113 23,242 70,343l15 33 -97 -15c-27,-4 -55,-8 -83,-12 -40,-7 -80,-13 -120,-19l-38 -6 -4 -3c-19,-14 -44,-19 -63,-11l-5 2 -59 -9 1 -18c0,-6 0,-12 -1,-18 -64,-302 -52,-615 33,-916l-121 0c-78,293 -90,604 -32,907l5 27 -27 -4 0 0c-116,-18 -231,-37 -346,-55l-128 -21 -155 -555 14 -7c52,-26 104,-52 155,-78 76,-39 151,-78 226,-117 63,-32 126,-65 188,-97l-256 0c-126,67 -254,135 -383,198l-11 6 -10 -8c-80,-64 -160,-129 -238,-196l-178 0c93,82 189,162 285,240l0 0 25 19 -29 14c-399,184 -738,284 -1067,316l-30 3 10 -29c65,-187 138,-374 220,-563l-125 0c-57,133 -110,264 -158,395l-19 51 -18 -52c-44,-131 -90,-262 -136,-394l-122 0c24,69 48,139 72,208l29 84 -61 -64c-77,-80 -158,-156 -241,-228l-178 0c181,149 358,317 508,505l25 32 -40 0c-354,1 -727,51 -1172,156l-33 8 10 -33c58,-179 87,-364 87,-550 0,-40 -1,-79 -4,-118l-115 0c3,40 5,79 5,119 0,210 -39,414 -115,607l-4 9 -9 2c-240,62 -481,132 -693,195l-25 7 0 -25c-6,-306 -35,-612 -86,-914l-118 0c54,316 84,637 88,958l0 0 0 15 -14 4c-346,101 -714,206 -1085,276 -271,52 -570,89 -940,118l-46 3 29 -35c339,-418 633,-866 877,-1339l-130 0c-256,486 -563,943 -921,1367l-9 10 -13 -4c-20,-4 -208,13 -373,27 -128,12 -260,24 -349,29l-30 2 10 -28c160,-456 277,-925 350,-1403l-119 0c-75,486 -196,964 -363,1428l-4 12 -13 1c-555,40 -1118,106 -1721,202 -158,25 -330,54 -524,89l-48 9 29 -40c412,-546 801,-1117 1160,-1701l-137 0c-376,608 -784,1200 -1217,1766l-4 6 -8 1c-190,36 -393,75 -618,121l-39 8 18 -36c312,-608 598,-1232 856,-1866l-125 0zm15939 195c-19,-65 -37,-130 -54,-195l-120 0c51,197 111,389 174,576l0 -381zm-940 -195l145 0c257,338 523,671 795,995l0 181c-324,-382 -638,-775 -940,-1176zm-17380 875l0 0 4 -2 4 0 1658 19 -72 36c-137,69 -293,147 -459,230 -616,308 -1384,691 -1849,918l-62 30 37 -58c236,-374 467,-764 687,-1158l7 -11 13 1c10,1 21,-1 32,-5zm11013 2999l0 0 -14 12 -363 -355 12 -14c511,-583 998,-1200 1450,-1836l7 -10 15 3c2,0 4,1 6,1l2441 135 -48 32c-1107,735 -2265,1414 -3444,2020l-6 3 -19 -2c-15,-2 -28,2 -37,11zm2117 16991l0 0 -7 5 -9 -3c-336,-99 -1668,-523 -1886,-596l-47 -16 45 -21c590,-268 1189,-526 1781,-767l6 -2 7 2c4,1 9,2 13,2l6 0 4 3 1071 726 -23 17c-135,92 -789,535 -961,650zm861 4274l0 0 -130 -405c57,-152 120,-301 176,-453 15,-43 16,-112 60,-134 34,-16 79,-9 115,-12 41,-4 82,-7 123,-10 110,-9 220,-18 331,-27 263,-21 527,-43 790,-64 134,-11 268,-22 403,-33l387 722 -23 7c-332,99 -2232,409 -2232,409zm-23322 -4968l0 0 -239 -929 1365 40 -2 20c-13,192 -28,380 -44,558l-1 13 -1079 298zm1067 -173l0 0 -3 28c-33,334 -73,673 -120,1006l-3 23 -21 -7c-5,-2 -10,-3 -15,-5l-16 -5 -805 -769 983 -271zm-977 -2553l0 0 -21 9 -290 -1298 250 -188 10 22c181,386 355,785 519,1187l6 14 -13 9c-146,101 -300,184 -461,245zm518 -143l0 0 9 23c53,130 99,250 143,364l15 39 -40 -14c-163,-57 -326,-114 -489,-171l-46 -16 44 -20c122,-54 237,-119 344,-191l20 -14zm-857 -1270l0 0 -60 -269 39 23c42,25 84,50 126,75l68 41 -173 130zm308 -1063l0 0 -83 -14 23 -26c493,-558 976,-1139 1438,-1729l91 -115 -58 135c-266,628 -967,1830 -967,1830 0,0 -233,-46 -444,-81zm693 -66l0 0c237,-386 452,-785 645,-1195 97,-205 188,-413 273,-624 55,-134 110,-259 186,-383 76,-125 154,-250 241,-369l22 -30 451 1336 -4 7c-259,560 -564,1103 -905,1614l-6 10 -13 -2c-309,-45 -631,-98 -984,-162l-29 -6 16 -24c36,-57 72,-114 107,-172zm9218 -12676l0 0c120,-25 241,-51 361,-76l13 -3 8 12c1,3 3,6 6,9 98,115 195,235 289,357l13 16 -657 439 -333 -168 6 -16c70,-192 142,-384 215,-572l10 -25 21 17c13,10 29,14 48,10zm760 408l0 0 12 15c99,133 198,272 294,415l20 30 -827 0 -107 -54 608 -406zm-717 482l0 0 -6 19c-229,828 -490,1661 -775,2476l-7 20 -19 -9c-103,-45 -206,-86 -307,-123l-16 -6 4 -17c197,-855 445,-1707 736,-2532l8 -21 382 193zm1491 740l0 0 13 -2 6 12c242,443 451,908 624,1381l6 16 -16 8c-176,88 -361,184 -549,284l-20 11 -771 -2055 672 339c11,5 23,8 35,6zm11047 12586l0 0c225,-777 339,-1586 339,-2404 0,-980 -162,-1940 -482,-2853l-10 -28 29 2c109,6 218,13 327,19l20 1c123,7 467,48 467,48 677,803 1191,1714 1529,2708l5 10 -2 7c-2,5 -3,10 -3,14l-154 1180 -6 5c-71,58 -137,110 -201,158 -29,22 -990,656 -1388,891 -91,54 -182,107 -272,161 -57,34 -113,68 -170,103l-42 26 14 -48zm-180 132l0 0c-1,4 -2,8 -2,12l-2 9 -7 5c-242,152 -492,315 -763,501l-30 20 0 -36c-1,-1082 -44,-2177 -129,-3253l-8 -101 45 90c332,672 696,1333 1083,1964 2,3 4,7 8,10l6 8 -2 9c-55,260 -122,516 -199,762zm1089 -5516l0 0c829,-624 1347,-1613 1383,-2646l2 -44 31 31c235,230 428,421 608,603l6 6 0 9c-51,858 -147,1672 -761,2205 -9,8 -41,40 -41,40 -270,-57 -519,-99 -760,-126 -140,-16 -289,-30 -458,-44l-51 -4 41 -30zm-255 15l0 0 -6 0c-148,-10 -296,-19 -439,-27l-3 -1c-278,-16 -565,-33 -848,-58l-38 -3 25 -29c860,-1019 1556,-2162 2068,-3397l11 -26 21 19c258,245 490,468 709,681l6 6 0 8c1,15 1,30 1,45 0,1110 -575,2175 -1501,2779l-6 3zm3609 -656l0 0 -2 10c-2,6 -2,11 -2,17 -4,445 -72,888 -203,1317l-6 18 -18 -5c-245,-64 -486,-135 -719,-204l-19 -5 6 -19c166,-502 379,-992 633,-1458l13 -24 18 20c100,110 199,220 292,325l7 8zm-1122 1103l0 0 -12 -3c-310,-90 -564,-157 -799,-212l-36 -8 27 -25c562,-522 688,-1315 741,-2093l3 -43 30 31c267,273 511,529 746,783l10 10 -7 13c-266,479 -703,1547 -703,1547zm-1209 -168l0 0c406,77 809,191 1188,302l14 4 0 15c-15,1122 -313,2233 -864,3212l-49 88 131 -1012c1,-7 1,-13 0,-21l-1 -3 1 -4c1,-10 0,-21 -3,-31 -328,-965 -820,-1855 -1463,-2647l-29 -35 45 3c405,32 732,72 1030,129zm589 3347l0 0c467,-918 725,-1948 746,-2976l0 -26 25 7c233,69 497,146 758,213l10 3 3 9c83,210 126,434 126,664 0,260 -172,789 -167,805 0,0 -508,437 -698,608 -153,137 -304,279 -450,416 -105,99 -214,201 -322,300l-79 73 48 -96zm970 -60l0 0c-186,-53 -388,-60 -581,-21l-68 14 156 -146c74,-68 147,-136 221,-204 228,-211 476,-433 740,-633 78,-59 157,-117 218,-161l4 -3 4 0c169,-31 341,14 473,123 126,105 198,258 198,421 0,34 -3,69 -9,104 -4,20 1,39 13,55l7 8 -4 11c-162,424 -333,858 -510,1290l-21 52 -16 -54c-119,-417 -436,-744 -825,-856zm427 -4802l0 0c-108,-116 -203,-218 -292,-312 -149,-157 -311,-323 -509,-524l-23 -23 31 -10c615,-182 1203,-443 1748,-776l24 -14 5 27c57,283 116,569 175,850l2 11 -9 8c-338,284 -1152,763 -1152,763zm-2043 5624l0 0 19 -14c105,-80 560,-462 646,-540l3 -2c290,-185 642,-232 943,-127 113,39 218,97 312,170 139,108 251,249 327,408 38,79 66,163 84,250 21,103 24,182 -18,282 -34,81 -69,163 -103,245 -188,445 -382,887 -582,1327l-17 36 -18 -36c-384,-753 -930,-1439 -1578,-1983l-18 -16zm2991 -7436l0 0 3 13 -12 7c-571,355 -1863,831 -1863,831 0,0 -365,-364 -593,-587l-26 -25 36 -8c438,-90 867,-277 1242,-540 374,-262 696,-601 933,-982l26 -42 9 49c82,445 164,877 245,1284zm-2598 123l0 0 -17 -5c-230,-223 -873,-837 -873,-837l765 -450c4,-3 9,-6 13,-10l2 -3 3 -1c827,-358 1561,-864 2182,-1504l27 -27 6 38c65,383 131,763 197,1131l2 7 -4 6c-467,867 -1328,1486 -2303,1655zm-346 -1317l0 0 -645 379 -11 -10c-145,-137 -291,-275 -436,-413l-557 -525 82 26c510,163 1024,341 1528,528l39 15zm-1714 -447l0 0c186,175 525,495 779,735l144 136c103,97 173,163 180,170l10 9 -5 12c-518,1272 -1234,2446 -2129,3490 -5,5 -9,12 -12,20l-6 13 -14 -1c-253,-25 -519,-57 -790,-95l-30 -4 17 -26c886,-1344 1506,-2892 1795,-4476l6 -35 55 52zm-2405 4540l0 0c661,106 1278,178 1887,222l12 1 5 12c330,922 498,1891 498,2880 0,511 -46,1023 -136,1524l-10 51 -26 -45c-433,-716 -832,-1462 -1188,-2217l-1 -4 -1 -4c0,-10 -3,-21 -9,-31 -488,-847 -1034,-1673 -1623,-2455l-29 -40 48 9c211,38 398,69 573,97zm891 2413l0 0 2 5c1,6 3,12 5,17 3,5 5,10 8,15l8 18 0 4c110,1229 165,2481 165,3719l0 98 -8 6c-40,27 -80,55 -119,83l-18 12 -10 -19c-325,-573 -658,-1147 -990,-1703l-3 -6 0 -6c39,-398 68,-799 87,-1192l0 -4c0,-11 -3,-21 -8,-30l-3 -6 1 -6c1,-9 0,-19 -4,-29 -235,-713 -1401,-3398 -1523,-3635l-18 -36 39 8c245,49 466,92 676,131l7 1 5 6c618,810 1191,1667 1701,2549zm2055 10814l0 0 -152 376 -121 -292c35,-84 130,-310 130,-310l143 226zm-87 -356l0 0 4 -9c84,-197 182,-425 293,-678l10 -23 20 16c333,278 681,547 1033,798l43 31 -1221 99c-5,1 -10,2 -15,3l-14 5 -153 -242zm3219 3934l0 0 66 44 -5785 -561 14 -26c177,-337 352,-683 520,-1030l4 -9 1949 -360c53,29 2286,1325 3232,1942zm-23521 -4255l0 0 1224 -1324 12 5c771,303 1468,736 2072,1287l11 10 -7 13c-266,543 -551,1099 -847,1654l-10 19c-49,-33 -98,-66 -147,-99 -118,-81 -236,-161 -354,-241 -157,-106 -313,-212 -469,-318 -163,-110 -326,-221 -489,-331 -139,-94 -967,-655 -996,-675zm6082 -17390l0 0 2 3 1 3c20,46 39,91 59,137l13 31 -33 -4c-351,-42 -642,-78 -916,-112l-8 -1 -4 -5c-629,-698 -1029,-1603 -1126,-2548l-8 -76 43 62c605,875 1270,1719 1977,2510zm98 -66l0 0c-45,-106 -92,-218 -143,-341l-17 -42 43 16c419,164 814,383 1173,649l51 38 -63 -3c-429,-17 -680,-31 -791,-44l-8 -1 -4 -5c-72,-78 -150,-164 -238,-262l-2 -2 -1 -3zm-1784 122l0 0 2 14c22,168 45,346 72,545l2 15 -831 328 48 -58c224,-270 443,-548 651,-826 3,-4 6,-7 7,-11l6 -13 43 6zm9909 2277l0 0 2 1c6,4 11,6 17,8 296,84 563,228 792,429l8 7 -1 11c-25,176 -48,347 -68,491l-3 25 -23 -9 -4949 -1953 542 -511 11 4c1247,431 2483,935 3672,1497zm277 -62l0 0c222,-79 433,-182 629,-308l36 -23 -14 89c-26,173 -53,357 -85,579l-4 34 -27 -21c-163,-130 -344,-236 -536,-314l-48 -19 49 -17zm-1630 330l0 0 -329 417 -12 1c-2,0 -3,0 -5,0 -215,29 -432,43 -646,41 -885,-6 -1782,-217 -2908,-685l-27 -12 21 -20c109,-105 273,-265 432,-419 200,-195 520,-503 520,-503l2954 1180zm-3362 -955l0 0c-47,45 -201,196 -350,342 -127,125 -257,253 -322,316l-40 38 736 -1221 -1 70c-3,142 -23,455 -23,455zm-815 748l0 0 4 2c5,4 11,7 18,8l4 1c1041,450 2288,893 3645,764l16 -1 12 41 -7 7c-269,341 -559,709 -862,1090l-10 13 -17 -3 -3143 -211 -3 -1c-1220,-526 -2423,-1127 -3577,-1786l-8 -5 -2 -9c-44,-290 -197,-1357 -223,-1545l-3 -27 27 6c216,45 427,99 627,160 818,248 1627,628 2410,996 356,167 723,340 1092,500zm3269 4516l0 0 -18 13 -10 -19c-355,-667 -560,-1405 -593,-2135 0,-2 -1,-3 -1,-5l-2 -12 6 -7c320,-403 662,-834 1074,-1357l23 -28 11 34c271,831 531,1686 773,2542l3 12 -10 8c-409,325 -832,646 -1256,954zm3635 -923l0 0 529 -514 11 25c76,162 149,323 217,477l13 28 -770 -16zm1018 2089l0 0c-122,289 -247,589 -309,740l-4 11 -12 1c-114,14 -228,27 -341,40l-10 1 -9 -10c-2,-1 -3,-3 -4,-4l-2304 -2030c-3,-2 -5,-4 -9,-6l-6 -4 -2 -8c-63,-233 -130,-477 -200,-725l-7 -25 26 1 2994 63 5 11c174,400 339,809 490,1214l3 7 -3 7c-65,158 -183,441 -298,716zm360 -563l0 0 17 47c85,233 167,470 244,703 2,6 5,11 8,17l5 6 -2 8c-1,4 -2,8 -2,12 -6,122 -13,253 -23,401l-1 16 -16 2c-236,26 -485,54 -740,83l-32 4 12 -30c57,-142 179,-430 296,-709 77,-184 154,-369 215,-514l19 -46zm-881 5372l0 0 -124 98c-242,194 -484,387 -615,491l-9 6 -469 -146 -3 -11c-62,-280 -94,-572 -94,-869 0,-480 80,-991 245,-1563l4 -14 15 0c198,4 407,8 620,13l16 0 414 1995zm-295 -1992l0 0 25 0c360,9 730,20 1131,34l22 0 -4 22c-76,487 -168,974 -273,1449l-1 7 -6 4c-32,25 -257,203 -472,375l-25 19 -397 -1910zm59 3945l0 0 -11 5c-369,187 -737,378 -1093,569l-15 8 -10 -15c-265,-412 -542,-820 -824,-1215l-9 -13 11 -12c251,-259 513,-499 778,-713l9 -7 11 5c144,65 514,245 1131,551l10 6 12 831zm106 -773l0 0 28 14c214,107 439,219 664,332l36 17 -36 18c-212,101 -432,209 -654,320l-28 14 -10 -715zm680 2552l0 0 -9 6c-288,181 -572,359 -843,526l-17 11 -10 -18c-298,-541 -619,-1081 -952,-1606l-11 -17 18 -10c346,-186 707,-374 1073,-558l11 -6 762 613 -6 14c-4,7 -5,15 -5,24l-11 1021zm127 -974l0 0 620 499 -22 15c-174,111 -363,231 -578,367l-30 19 10 -900zm-14810 3316l0 0c5,-1 10,-2 15,-4l10 -3 195 133 -1097 1339 -15 -15c-103,-97 -203,-196 -296,-295l-6 -7 81 -1009 20 -2c1,0 2,0 3,0 358,-62 725,-108 1090,-137zm-1104 22l0 0 60 -753 921 625 -54 5c-300,28 -603,68 -903,119l-24 4zm4109 -4900l0 0c41,-22 82,-44 123,-65 196,-100 399,-189 605,-267 206,-79 417,-146 630,-201 214,-55 431,-99 649,-131 51,-8 102,-15 154,-21 178,-21 356,-33 535,-40 8,-1 16,-1 24,2 12,4 16,16 23,27 9,14 19,28 29,42 20,29 39,57 59,85 41,59 81,117 123,176 142,202 292,413 424,599l3 3c76,108 153,215 229,323l25 34 -42 -4c-291,-26 -704,-70 -1104,-112l-7 -1c-567,-60 -1210,-128 -1270,-119l-1 1c-719,395 -1400,870 -2024,1412l-67 58 37 -81c53,-117 105,-234 158,-352 98,-221 195,-443 290,-665 48,-111 95,-222 142,-333 23,-57 47,-113 70,-169 12,-28 24,-56 36,-84 2,-5 24,-69 28,-69 4,0 9,-1 13,-2 38,-9 72,-28 106,-46zm-39 -10739l0 0c-5,-29 -92,-569 -129,-807l-1 -10 24 -26 14 7c1116,632 2278,1210 3454,1715 5,3 11,4 17,5l3 1 3 2c10,5 20,8 31,9l3071 206 -24 29c-168,212 -579,726 -579,726 0,0 -2171,-18 -3174,-316 -35,-11 -70,-22 -104,-33 -202,-65 -400,-145 -592,-235 -190,-89 -376,-188 -557,-294 -177,-104 -350,-215 -519,-331 -163,-111 -323,-226 -482,-343 -75,-56 -150,-113 -225,-170 -37,-27 -231,-138 -231,-135zm10226 5612l0 0c-154,14 -305,25 -458,51 -168,28 -335,56 -504,78l-20 2 -2 -20c0,-4 0,-8 -1,-11 -150,-644 -313,-1300 -484,-1949l-17 -62 2097 1847c0,0 -437,48 -611,64zm1220 -2l0 0 561 515 -1397 19 11 -27c22,-51 43,-102 65,-152l1 -3 2 -2c98,-110 181,-201 260,-287l5 -5 7 -1c159,-19 318,-37 476,-56l9 -1zm-3834 1789l0 0 -18 0 -1 -19c-20,-429 -32,-854 -36,-1264l-1 -17 17 -2c594,-81 1196,-160 1789,-235l52 -6 -35 38c-240,268 -581,745 -843,1493l-4 13 -14 0c-334,-1 -630,-2 -906,-1zm-1768 1387l0 0c67,18 134,36 200,54 220,59 440,117 660,176 165,44 331,88 496,134l51 14 -48 22c-22,11 -45,21 -67,32 -161,77 -320,157 -477,242 -74,40 -150,80 -224,122 -56,32 -107,70 -168,95 -28,12 -57,22 -86,30 -17,6 -43,31 -59,26 -12,-4 -28,-23 -38,-31 -43,-35 -86,-70 -129,-104 -111,-91 -222,-181 -334,-271l2 -11c1,-4 1,-7 1,-11 0,-1 0,-3 0,-5 0,-78 0,-156 0,-234 0,-48 0,-96 0,-144 0,-18 0,-35 0,-52 1,-23 170,-97 220,-84zm3861 7243l0 0 -2125 559c-14,4 -24,11 -31,20l-15 20 -16 -19c-268,-314 -523,-616 -737,-872l-24 -29 38 -3c962,-80 1937,-196 2898,-345l12 669zm147 -629l0 0 29 20c190,135 389,260 592,372l42 24 -692 182 29 -598zm-3776 -5555l0 0 -8 14 -1475 2546 -17 -26c-183,-276 -384,-568 -652,-944l-7 -10 6 -11c4,-7 7,-14 8,-23 132,-868 572,-1671 1237,-2262l12 -11 896 727zm-806 -803l0 0 19 -15c60,-50 124,-98 188,-144l30 -21 0 373 -237 -193zm860 975l0 0 325 1337 -7 7c-564,578 -976,1290 -1193,2061l-12 44 -23 -40c-57,-99 -133,-229 -211,-360 -98,-164 -205,-336 -327,-525l-7 -10 1455 -2514zm337 1514l0 0 25 -26 454 1864 -4 7c-301,508 -587,1028 -827,1471l-15 28 -18 -27c-273,-402 -521,-831 -739,-1210l-4 -6 1 -8c191,-784 580,-1508 1127,-2093zm-1021 2552l0 0c147,249 344,576 561,892l8 11 -486 792 -12 -1c-528,-15 -1066,-37 -1586,-59l-2 0c-1998,-82 -4065,-168 -6079,115l-130 18 145 -67c1179,-540 2422,-960 3694,-1247 1271,-288 2573,-444 3870,-464l12 0 5 10zm664 1038l0 0 7 11c169,234 336,441 510,632l30 33 -44 0c-293,-2 -592,-6 -889,-14l-41 -1 402 -656 25 -5zm-8727 710l0 0c0,0 -386,806 -686,1448l-90 192 -19 -16c-111,-88 -223,-183 -332,-282l-14 -12 1109 -1353 32 23zm-338 1012l0 0c186,-399 361,-772 379,-806l6 -11 12 1c7,0 13,0 18,-1 326,-54 651,-99 968,-133 49,-5 97,-10 146,-15l5 0 4 2c422,178 847,380 1264,600l54 29 -2871 366 15 -32zm2877 -455l0 0c-334,-177 -682,-346 -1033,-502l-70 -31 76 -6c265,-22 542,-39 824,-52l17 0 3 16c1,5 2,9 3,13l226 586 -46 -24zm-69 -596l0 0 28 -1c1093,-42 2202,-12 3143,24l14 0 35 123 -2993 444 -227 -590zm3308 28l0 0 27 1c193,7 386,15 579,23l16 1 2 16c12,93 26,203 43,331l2 17 -521 127 -148 -516zm3523 -222l0 0c-3,0 -4,0 -5,1l-11 1 -7 -8c-243,-294 -405,-496 -468,-585l-7 -10 5 -10c107,-198 215,-395 323,-591 169,-307 340,-614 521,-914 46,-76 89,-154 135,-230l12 -20 17 15 2463 2000 -43 7c-972,150 -1959,265 -2935,344zm552 -2455l0 0 32 -52 2560 1398 8 19 -7 8c-7,9 -11,21 -11,34 -6,196 -26,395 -58,590l-6 33 -2518 -2030zm2657 1248l0 0 -2501 -1365 2692 -219c7,0 14,-2 21,-6l16 -7 9 15c208,344 413,699 609,1054l9 17 -16 9c-283,175 -558,344 -819,502l-10 5 -10 -5zm-2513 -1480l0 0 21 -33c116,-183 225,-350 336,-511 372,-545 743,-1012 1134,-1429l16 -18 14 20c398,559 782,1140 1142,1726l16 27 -2679 218zm2059 -2706l0 0c-217,188 -424,387 -622,594 -210,221 -409,452 -599,690 -207,259 -402,527 -589,800 -200,293 -390,593 -574,897l-24 40 -443 -1820 8 -7c84,-83 170,-162 257,-235 744,-626 1693,-1009 2671,-1078l59 -4 -45 39c-34,27 -67,56 -99,84zm-2656 845l0 0c-70,58 -139,121 -207,184l-24 24 -337 -1386 12 -7c393,-243 801,-459 1213,-642l7 -2 37 10c7,2 14,4 21,6 577,172 1189,398 1869,692l69 29 -74 8c-953,97 -1871,482 -2586,1084zm-2960 187l0 0 -9 45 -26 -38c-49,-68 -98,-136 -147,-204l-15 -21c-258,-359 -524,-730 -777,-1101l-8 -12 10 -12c506,-591 1105,-1087 1778,-1475l8 -4 8 3c246,88 517,174 830,265l40 12 -34 23c-866,582 -1470,1500 -1658,2519zm-3174 -2203l0 0 -43 20 16 -45c215,-572 422,-1150 615,-1717l1 -4 26 -29 11 30c191,517 444,1042 772,1605l25 42 -47 -13c-460,-129 -949,-89 -1376,111zm-2193 578l0 0 -68 14 151 -141c75,-70 150,-139 226,-209 229,-211 476,-433 740,-633 78,-59 158,-117 218,-161l4 -3 4 0c69,-13 138,-13 207,-1l35 7 -1039 1124 -10 -2c-153,-28 -315,-26 -468,5zm1749 -1172l0 0 -20 -13 831 -899 -31 88c-144,416 -292,829 -442,1230l-21 56 -16 -58c-47,-167 -154,-310 -301,-404zm-126 -2924l0 0 -24 -27 36 -5c272,-40 527,-132 758,-273l23 -15 6 27c127,570 258,1131 388,1666l5 18 -64 14 -7 -10c-338,-458 -716,-927 -1121,-1395zm889 1306l0 0 -77 -40c-330,-171 -661,-353 -1012,-555l-12 -7 3 -13c34,-199 55,-402 64,-603l2 -49 32 37c347,399 656,779 947,1161l53 69zm2606 -2199l0 0 50 -7 -32 39c-222,264 -485,574 -759,872l-5 5 -12 2c-678,154 -1412,-92 -1870,-627l-3 -3 -2 -5c-57,-261 -115,-531 -173,-803l0 -5c-1,-8 -2,-14 -4,-21l-2 -3c-51,-244 -98,-470 -143,-693l-18 -89 53 74c324,452 767,809 1282,1032 517,224 1083,304 1638,232zm-2530 575l0 0c425,374 1016,562 1581,502l53 -6 -37 39c-423,446 -824,806 -1223,1101l-23 18 -7 -29c-130,-535 -257,-1076 -376,-1606l-13 -59 45 40zm1024 1593l0 0 -124 21 112 -57c330,-168 662,-344 986,-521l16 -9 10 15c78,114 169,220 270,314l29 27 -39 6c-80,13 -159,26 -239,39 0,0 -793,128 -1021,165zm309 -333l0 0c-183,96 -372,193 -576,295l-158 79 137 -111c335,-274 669,-590 1019,-965l23 -24 10 31c39,119 91,236 154,347l10 17 -17 9c-200,110 -402,218 -602,322zm390 353l0 0 30 -5 -146 523 -21 -9c-316,-147 -587,-245 -851,-309l-93 -22 94 -16c300,-50 623,-103 987,-162zm-1398 263l0 0c359,35 730,145 1166,346l29 13 -25 20c-255,205 -503,427 -737,660l-19 19 -12 -25c-169,-344 -307,-674 -422,-1007l-10 -28 30 2zm1419 321l0 0 -15 -7 170 -605 139 -22c126,-21 251,-41 377,-61l27 -4 -5 27c-26,139 -40,280 -40,420 0,201 27,400 81,592l11 42 -39 -20c-93,-48 -187,-96 -281,-144l-9 -5c-82,-43 -164,-85 -247,-128 -56,-29 -113,-57 -169,-85zm830 -682l0 0c2,-6 2,-13 2,-20l-1 -18 105 -16c69,-11 139,-22 209,-33 29,-5 58,-9 88,-13l104 -16 -15 32c-50,112 -64,252 -76,376l-1 3c-3,28 -5,55 -8,80 -34,290 -49,587 -42,879l0 32 -28 -14c-86,-40 -173,-83 -260,-126l-13 -7 3 -14c2,-11 1,-22 -3,-33 -118,-356 -140,-731 -64,-1092zm523 536l0 0c12,-128 29,-280 57,-432l2 -13c14,-76 34,-191 123,-223 10,-4 18,-9 25,-15l4 -4 6 -1c302,-46 567,-86 810,-123l30 -4 -8 29c-166,601 -359,1201 -574,1784l-6 18 -19 -7c-148,-55 -298,-118 -461,-191l-11 -5 0 -13c-10,-278 -2,-549 22,-800zm-592 -697l0 0 -9 2 -6 -6c-132,-103 -248,-228 -347,-369l-12 -18 19 -10c292,-162 587,-330 876,-500l18 -10 9 18c46,86 93,162 146,233 142,190 330,345 530,436l60 27 -65 10c-444,67 -843,128 -1219,187zm-419 -499l0 0 -17 10 -10 -17c-75,-133 -133,-274 -172,-419l-3 -10 7 -8c262,-285 531,-591 824,-935l26 -31 7 40c52,260 118,560 238,836l7 16 -15 9c-296,174 -596,345 -892,509zm1015 -608l0 0c-128,-302 -192,-632 -248,-923l-2 -9 6 -7c393,-467 772,-934 1157,-1411l19 -24 14 28c213,451 419,914 612,1375l7 15 -14 9c-498,329 -1010,651 -1523,956l-19 12 -9 -21zm559 -2183l0 0 50 -8 -32 40c-272,331 -519,630 -758,915l-216 259 -11 -2c-9,-1 -17,-1 -25,1 -609,115 -1230,36 -1797,-230 -566,-266 -1025,-692 -1328,-1232 -9,-16 -111,-351 -147,-540l-8 -43 37 22c628,376 1316,638 2046,778 728,141 1464,154 2189,40zm-4292 -243l0 0 3 13 -12 7c-571,355 -1186,629 -1830,813 -7,2 -13,5 -19,9l-14 9 -11 -11c-169,-171 -354,-354 -582,-576l-26 -25 36 -8c438,-90 867,-277 1242,-540 374,-262 696,-601 933,-982l26 -42 9 49c82,445 164,877 245,1284zm7 167l0 0 24 -14 5 27c57,284 116,569 175,850l2 11 -9 8c-338,284 -705,541 -1091,766l-7 3 -7 -1c-9,-2 -18,-2 -28,1l-11 3 -8 -9c-107,-116 -203,-218 -292,-312 -149,-157 -311,-324 -509,-524l-23 -23 31 -10c615,-182 1203,-443 1748,-776zm213 1042l0 0 24 -21 7 32c54,253 102,478 148,686l1 5c0,10 2,19 6,27l1 4 22 96 -12 7c-266,175 -560,276 -871,302l-10 1 -7 -8c-108,-123 -221,-249 -345,-385l-17 -18 21 -12c360,-209 707,-450 1032,-716zm-1122 850l0 0c101,110 199,220 293,325l6 8 -2 10c-1,6 -2,11 -2,17 -2,227 -21,457 -57,683l-4 28 -25 -15c-183,-106 -375,-221 -570,-339l-14 -9 6 -16c103,-234 217,-466 338,-688l13 -24 18 20zm-382 841l0 0c190,115 386,232 582,346l12 6 -3 14c-31,159 -70,317 -117,470l-6 18 -18 -5c-245,-64 -486,-135 -719,-204l-19 -5 6 -19c69,-209 147,-419 233,-624l9 -21 40 24zm711 450l0 0 5 -27 23 14c379,217 754,420 1113,603l78 39 -87 -2c-368,-12 -757,-71 -1225,-185l-20 -5 6 -20c41,-136 77,-276 107,-417zm-45 591l0 0c487,115 894,169 1282,171l40 0 -25 32c-279,350 -644,634 -963,865l-109 79c-81,58 -161,116 -242,175l-51 37 22 -59c78,-217 118,-443 118,-672 0,-204 -32,-407 -95,-603l-10 -33 33 8zm169 1350l0 0c81,-58 155,-110 229,-165 43,-31 87,-63 132,-97l26 29 -275 297 -12 -4c-30,-11 -61,-19 -92,-25l-45 -9 37 -26zm2231 581l0 0c-114,-207 -234,-410 -342,-621l-6 -13 10 -10c260,-262 540,-512 831,-742l10 -8 11 6c174,85 348,178 516,268l6 3c70,38 140,75 211,112l19 10 -12 18c-66,94 -135,186 -208,275 -133,164 -277,319 -431,463 -77,72 -156,142 -238,209 -41,34 -82,66 -124,99 -17,13 -34,26 -51,39 -12,9 -24,17 -36,27 -9,7 -19,20 -33,19 -8,-1 -15,-7 -21,-13 -14,-13 -27,-26 -40,-40 -27,-31 -51,-63 -72,-101zm1376 -919l0 0 9 -14 16 8c84,43 159,81 230,114 192,92 392,177 612,261l37 14 -34 21c-626,377 -1184,847 -1660,1396l-16 19 -15 -21c-136,-204 -257,-391 -370,-573l-10 -16 15 -10c463,-330 862,-734 1186,-1199zm2076 627l0 0c-342,-98 -625,-187 -893,-282l-19 -6 7 -19c226,-611 427,-1239 598,-1867l3 -12 13 -2c237,-35 489,-72 791,-115l33 -5 -13 31c-281,720 -448,1480 -495,2259l-2 24 -23 -6zm-1342 -2851l0 0c-32,-49 -62,-102 -92,-160l-8 -16 15 -10c511,-303 1021,-623 1516,-951l20 -13 9 22c53,130 106,259 159,389 57,139 125,278 161,424 56,230 116,465 134,701l1 18 -18 3c-327,46 -632,91 -933,135l-2 1c-364,19 -733,-188 -962,-543zm2046 365l0 0c-26,-314 -92,-623 -197,-920l-20 -58 1201 861 -48 6c-292,40 -600,83 -914,128l-21 3 -1 -20zm1195 -146l0 0 -1528 -1078 -2 -6c-42,-104 -89,-217 -142,-345l-6 -14 13 -9c359,-240 718,-489 1068,-740l18 -13 10 19c44,76 89,150 135,222 465,729 1097,1332 1825,1745l51 28 -58 8c-487,62 -939,122 -1384,183zm1542 -325l0 0 10 42 -38 -21c-751,-414 -1396,-1028 -1865,-1778 -37,-59 -75,-121 -112,-186l-8 -15 14 -10c176,-128 352,-258 524,-387 227,-172 456,-349 701,-542l22 -18 8 28c270,959 520,1930 744,2887zm-2178 -1982l0 0 -14 10c-344,248 -699,494 -1054,731l-19 13 -9 -21c-203,-482 -417,-961 -638,-1426l-5 -11 27 -34c80,-98 159,-196 238,-295 245,-302 506,-628 823,-1025l30 -38 4 49c59,695 269,1398 609,2032l8 15zm-6846 -3486l0 0c839,637 1672,1230 2649,1506 953,269 1939,294 3036,297l41 0 -25 31c-313,390 -600,745 -877,1084l-6 7 -12 1c-2,0 -4,0 -6,0 -1519,290 -3144,-21 -4458,-852l-8 -4 -1 -9c-128,-675 -251,-1363 -364,-2042l-8 -48 39 29zm-141 169l0 0c65,383 131,763 198,1131l1 7 -4 6c-467,867 -1328,1486 -2303,1655l-9 2 -8 -7c-230,-224 -873,-837 -873,-837l765 -450c4,-3 9,-6 13,-10l2 -3 3 -1c827,-358 1561,-864 2182,-1504l27 -27 6 38zm-2931 2202l0 0c257,245 490,468 710,681l5 6 1 8c0,15 0,30 0,45 0,469 -105,946 -304,1380l-9 20 -299 -193c-264,-171 -538,-349 -807,-522l-15 -9 9 -16c253,-450 481,-919 677,-1393l11 -26 21 19zm-759 1528l0 0c275,177 554,357 824,532l286 185 -8 16c-134,260 -301,501 -496,716l-5 6 -10 1c-491,82 -973,231 -1433,444l-20 9 -149 -441 7 -9c357,-460 685,-949 977,-1452l10 -18 17 11zm1288 694l0 0 -14 -9 7 -16c200,-426 309,-876 325,-1336l2 -44 31 31c235,230 428,421 608,603l6 6 0 9c-28,480 -68,874 -172,1234l-7 25 -22 -14c-224,-141 -466,-297 -764,-489zm1088 -594l0 0 3 -43 30 31c268,273 512,529 746,783l10 10 -7 13c-130,234 -252,480 -361,728l-9 21 -19 -12c-182,-112 -368,-227 -568,-353l-13 -8 4 -15c120,-392 161,-823 184,-1155zm-206 1296l0 0c198,125 380,239 557,347l14 9 -6 15c-88,210 -292,671 -292,671 -309,-90 -563,-157 -799,-212l-36 -8 27 -25c222,-206 387,-464 506,-787l9 -22 20 12zm-924 877l0 0c406,77 810,191 1188,302l15 4 -1 15c-14,1122 -313,2233 -863,3212l-50 87c5,-36 10,-73 15,-110 24,-184 48,-368 71,-552 11,-83 22,-166 33,-248 3,-26 6,-52 10,-78 10,-82 -24,-151 -51,-225 -109,-303 -235,-599 -377,-888 -141,-288 -299,-567 -473,-837 -172,-270 -360,-532 -563,-779l-29 -36 46 4c405,32 732,72 1029,129zm590 3347l0 0c466,-918 724,-1948 745,-2977l0 -25 25 7c234,69 498,146 758,213l10 3 4 9c83,210 125,434 125,664 0,133 -15,266 -44,397 -29,131 -78,253 -128,378 -22,55 -72,88 -115,126 -96,86 -192,171 -289,256 -113,100 -220,194 -289,256 -152,136 -303,279 -450,416 -105,99 -214,201 -322,300l-79 73 49 -96zm1024 -42l0 0 -28 -10 1027 -1112 14 7c35,18 69,41 99,66 126,105 198,258 198,421 0,34 7,178 7,178 -162,424 -333,858 -510,1290l-21 51 -16 -53c-114,-399 -402,-712 -770,-838zm1438 -397l0 0 2 -6 6 -4c495,-297 1106,-347 1634,-133l6 2 3 6c141,231 295,471 472,734l20 29 -35 2c-901,42 -1799,285 -2598,703l-48 25 21 -49c177,-433 351,-873 517,-1309zm-27 2492l0 0c273,-175 489,-305 594,-368 240,-142 259,-147 265,-148l3 0 2409 217 6 8c294,416 639,914 968,1443l19 30c0,0 -4413,-86 -4423,-78 0,0 -776,-113 -1144,-122l-49 -2 37 -32c342,-306 904,-684 1315,-948zm-1420 1113l0 0c305,2 612,27 914,72l67 10 -63 27c-488,210 -951,479 -1375,798l-64 48 34 -72c145,-301 472,-884 487,-883zm1221 129l0 0 4547 76 5 9c50,82 99,164 145,243 64,109 127,219 192,330l2 5c51,87 101,174 151,261l17 28 -33 1c-175,4 -336,9 -492,16 -1244,59 -2489,242 -3702,544 -1211,302 -2396,723 -3521,1254l-53 25 27 -52c245,-460 480,-914 697,-1352 53,-105 105,-211 153,-310l5 -10 11 -1c14,-1 27,-7 38,-16 544,-447 1153,-801 1811,-1051zm-4541 3276l0 0 -102 1275 -801 -2318 58 56c313,299 596,629 841,981l4 6zm64 657l0 0 30 31c66,68 138,138 212,208l14 12 -305 372 49 -623zm341 330l0 0 15 13c117,105 239,208 362,305l12 9 -27 58 -10 2c-430,67 -665,103 -717,112l-52 9 417 -508zm805 -252l0 0 2845 -363 -870 618c-3,2 -5,4 -8,7l-4 4 -6 1c-844,130 -1632,251 -2207,340l-36 6 286 -613zm3073 -383l0 0 173 451 -1031 159 858 -610zm77 -123l0 0 2982 -443 158 547 -22 4c-688,107 -1852,286 -2889,446l-15 2 -214 -556zm3218 -45l0 0 505 -122 24 176 -19 3c-59,10 -208,33 -455,72l-17 2 -38 -131zm673 28l0 0 -34 -7 -5 -34c-6,-51 -63,-465 -76,-562l-3 -23 23 1c933,38 1898,79 2849,80 1,0 1,0 2,0l14 -2 7 7c35,35 457,524 946,1091 420,486 897,1038 1169,1350l58 67 -81 -37c-341,-154 -682,-315 -1013,-471 -1234,-583 -2510,-1186 -3856,-1460zm3606 252l0 0 -21 -24 2100 -553 -124 2556 -26 -11c-98,-41 -197,-82 -293,-124l-7 -3 -3 -7c-3,-8 -9,-16 -17,-23 -182,-162 -981,-1077 -1609,-1811zm3156 -942l0 0c0,0 -636,-322 -885,-502l-3 -2c-2,-2 -4,-4 -6,-6l-25 -20 2 -11c42,-228 68,-460 75,-689l1 -25 3788 1066 -9 20c-137,310 -278,619 -421,917l-8 16 -16 -6c-811,-300 -2492,-758 -2493,-758zm2978 -302l0 0 -3702 -1042 38 -23c237,-144 454,-276 662,-404l9 -6 10 5c5,3 10,4 15,6 1068,267 2152,554 3221,854l21 6 -8 20c-77,187 -159,380 -243,573l-7 16 -16 -5zm-2815 -1546l0 0 -45 -11 39 -24c189,-117 391,-244 636,-397l9 -6 10 5c967,405 1936,855 2880,1338l-15 36c-1164,-331 -2347,-648 -3514,-941zm-335 -3774l0 0c151,-119 353,-278 570,-449l25 -19 152 731 -776 -241 29 -22zm-646 -2607l0 0c-160,565 -237,1075 -237,1560 0,280 26,555 79,817l8 38 -41 -19c-5,-4 -11,-6 -17,-8l-4 -1c-493,-222 -931,-402 -1341,-551 -8,-3 -15,-5 -23,-8l-30 -10 0 -13c-7,-129 -8,-264 -3,-397l0 -5 3 -5c324,-479 671,-958 1030,-1423l6 -8 10 0c180,2 361,5 541,8l26 1 -7 24zm-760 -4l0 0c-273,357 -539,722 -791,1086l-43 62 8 -75c39,-370 120,-739 242,-1095l5 -14 14 0c183,2 366,3 550,5l38 0 -23 31zm-713 -11l0 0c-23,70 -43,136 -61,203 -9,30 -17,59 -25,89 -29,109 -55,219 -79,330 -20,96 -39,193 -54,291 -14,80 -25,161 -35,242 -7,62 -13,124 -17,186 -3,41 -6,82 -4,123 2,42 4,83 4,125 1,56 0,112 2,168l1 28 -27 -9c-161,-55 -324,-105 -487,-156 -6,-26 -44,-656 -61,-897 -16,-243 -30,-486 -42,-729l-1 -21 20 0c259,0 536,0 847,2l27 0 -8 25zm-1047 -713l0 0c7,242 17,484 29,727 12,242 27,484 43,726 9,120 17,241 27,361 5,61 9,121 15,181 2,30 3,186 -1,207 -36,18 -125,50 -125,50 -298,-85 -602,-165 -897,-243l-6 -2c-232,-61 -473,-124 -708,-190l-18 -5 4 -19c1,-3 1,-5 1,-8 45,-798 221,-1584 524,-2334l4 -10 12 -2c349,-50 706,-99 1059,-148l22 -3 0 22c3,230 8,460 15,690zm2565 573l0 0 -4 14 -15 0c-156,-2 -311,-5 -467,-7l-39 -1 24 -31c272,-346 553,-688 835,-1016l77 -89 -44 109c-99,246 -245,620 -367,1021zm508 -1018l0 0 217 1047 -24 -1c-181,-4 -361,-8 -542,-11l-26 0 8 -25c89,-288 201,-599 343,-950l24 -60zm2469 1119l0 0c-239,-10 -486,-19 -757,-29l-22 0 3 -22c53,-350 98,-700 135,-1038l6 -58 30 50c205,346 415,705 623,1068l17 31 -35 -2zm-910 -51l0 0 -2 17 -18 0c-408,-14 -807,-26 -1187,-35l-15 0 -244 -1173 1528 -21 83 76 -1 9c-39,374 -87,753 -144,1127zm-2753 -53l0 0 -6 8 -10 0c-209,-3 -415,-5 -612,-6l-28 0 10 -26c218,-574 533,-1092 935,-1538l5 -6 7 -1c302,-38 630,-78 1002,-122l34 -4 -13 31c-22,49 -43,99 -64,149l-1 3 -3 2c-432,484 -855,992 -1256,1510zm2282 -1806l0 0 43 -5c208,-24 415,-47 620,-70l23 -3 -2 24c-13,185 -29,380 -48,579l-1 3 -1 3c-1,3 -2,6 -3,9l-8 31 -623 -571zm-16496 -6442l0 0 5 1 1651 171 -72 29c-676,276 -1365,536 -2050,773l-11 4 -589 -557 1066 -421zm-1162 331l0 0 -515 -504 1391 144 -876 360zm1396 -423l0 0 2883 -1138 -54 61c-374,426 -771,843 -1179,1241l-6 6 -1644 -170zm2003 -21l0 0c380,-384 753,-789 1108,-1204l3 -4 5 -2 1025 -404 3 24c22,158 47,346 74,538l2 10 -8 7c-252,220 -543,378 -867,470 -7,2 -13,5 -18,8l-4 3c-423,199 -861,397 -1302,586l-92 39 71 -71zm1583 -503l0 0 47 -19c210,-86 407,-201 585,-343l27 -21 5 34c34,241 64,442 93,634l14 91 -37 -23c-213,-137 -444,-250 -686,-336l-48 -17zm275 -1818l0 0c-253,335 -519,666 -789,985l-3 3 -5 2 -3351 1322 -4 0 -1439 -149 57 -30c1342,-701 2650,-1493 3888,-2354 7,-5 13,-11 18,-18l6 -10 1642 223 -20 26zm-6819 2242l0 0c-54,-78 -203,-299 -226,-331 -16,-23 -47,-256 -31,-306l76 -359 590 583 -13 14c-115,129 -238,265 -366,401l-16 18 -14 -20zm-77 94l0 0 9 13 -11 11c-127,134 -253,264 -374,387l-46 46 36 -180 74 -373c14,-71 29,-141 43,-211l13 -61 26 36c69,99 143,204 230,332zm975 -5163l0 0 46 -12 -24 41c-301,516 -532,996 -706,1469l-19 51 -18 -52c-176,-520 -366,-1049 -563,-1573l-16 -45 43 20c390,183 837,219 1257,101zm1020 2762l0 0 -23 32c-430,601 -895,1187 -1382,1743l-13 15 -574 -561 1251 -1225 14 10c9,7 20,11 34,10l693 -24zm-2060 1132l0 0 18 -85c10,-46 20,-91 30,-137l64 -287c39,-175 82,-364 132,-578l2 -8 7 -4c203,-117 415,-233 630,-345l9 -5 366 218 -1258 1231zm3338 -1713l0 0c-11,3 -171,-21 -172,-21l-6 -1 -5 -4c-6,-6 -13,-10 -22,-13 -82,-30 -101,-136 -114,-206l-2 -11c-25,-139 -40,-278 -52,-395 -22,-230 -29,-475 -20,-731l1 -12 11 -5c148,-67 286,-124 422,-175l18 -7 7 19c196,532 372,1080 523,1628l8 29 -30 -4c-61,-9 -153,-26 -242,-41 -135,-24 -303,-54 -325,-50zm-512 -1308l0 0c-5,268 8,538 39,804 3,24 5,49 8,75 11,113 23,242 70,343l15 33 -180 -27c-51,-8 -260,-41 -272,-43l-17 -3 1 -18c0,-6 0,-12 -1,-18 -69,-329 -49,-672 58,-997 4,-10 4,-20 2,-29l-3 -15 14 -6c80,-40 160,-79 239,-116l28 -14 -1 31zm-2021 1486l0 0 -21 11c-159,83 -314,168 -463,252l-39 22 10 -43c47,-201 97,-409 147,-618l9 -36 357 412zm-248 -464l0 0 150 -12 2 1c117,19 363,59 730,119l61 10 -56 27c-171,81 -346,167 -519,256l-14 7 -354 -408zm489 471l0 0c207,-106 415,-207 617,-301 8,-4 14,-8 19,-14l7 -8 174 28 -526 514 -13 -15c-5,-5 -10,-9 -15,-12l-295 -177 32 -15zm1360 -1280l0 0c-83,298 -96,615 -37,924l5 27 -27 -4c-116,-18 -231,-37 -346,-56l-128 -20 -155 -555 14 -7c51,-25 103,-51 155,-78 76,-39 151,-78 225,-116 89,-46 178,-92 267,-138l39 -20 -12 43zm-896 257l0 0 25 19 -29 14c-399,184 -738,284 -1067,316l-30 3 10 -29c106,-305 232,-606 386,-921l12 -24 19 19c214,213 441,416 674,603zm80 120l0 0 21 -10 136 484 -31 -5c-335,-54 -631,-103 -905,-149l-95 -16 94 -22c242,-58 490,-147 780,-282zm397 650l0 0c3,-3 5,-5 8,-9l7 -10 468 75 -17 25c-98,146 -199,294 -302,441l-6 8 -725 25 567 -555zm372 426l0 0c90,-131 164,-239 231,-340l7 -10 12 2c134,21 267,41 401,62l74 11 -70 26c-215,80 -427,173 -630,277l-69 35 44 -63zm1702 -244l0 0 -3 -12c-156,-574 -339,-1147 -545,-1704l-7 -19 19 -6c244,-87 503,-168 816,-257l23 -7 2 24c43,711 195,1405 452,2061l12 31 -33 -4c-279,-40 -508,-74 -723,-105l-13 -2zm-784 -1773l0 0 -37 14c-201,77 -384,155 -559,238 -64,31 -133,65 -211,105l-15 7 -10 -14c-294,-424 -658,-792 -1081,-1093l-15 -10 10 -16c103,-166 214,-338 339,-524l14 -21 17 19c434,501 943,930 1514,1274l34 21zm-1950 -626l0 0c393,283 733,628 1011,1026l13 19 -19 10c-67,35 -133,70 -199,105 -154,82 -312,167 -471,245l-11 6 -10 -8c-266,-211 -521,-439 -759,-678l-10 -10 7 -13c110,-215 235,-440 371,-666l3 -6 14 -6c4,-1 8,-3 12,-5 9,-4 16,-9 21,-16l12 -15 15 12zm-602 4738l0 0 12 -14c511,-582 998,-1200 1450,-1836l7 -10 15 3c2,0 4,1 6,1l2442 135 -49 32c-1107,735 -3520,2044 -3520,2044l-363 -355zm4416 -2049l0 0c-100,69 -206,141 -335,228l-12 8 -11 -8c-9,-7 -20,-11 -32,-11l-2320 -129 66 -33c270,-134 551,-247 837,-336l4 -1 85 13c40,6 80,12 120,18l1639 222 -41 29zm801 -23l0 0c-322,-44 -648,-90 -968,-135l-11 -2 -4 -10c-277,-685 -438,-1401 -479,-2130 0,-2 0,-4 -1,-7l-3 -19 17 -5c217,-60 438,-119 652,-175 269,-71 547,-145 818,-222l7 -2 6 3c31,13 62,27 93,40l13 5 -1 15c-1,9 2,18 8,27l4 6 -1 7c-75,855 -118,1725 -128,2585l-1 22 -21 -3zm-1715 -2349l0 0 -40 11c-286,83 -534,162 -759,243l-8 3 -8 -5c-614,-354 -1160,-807 -1623,-1346l-10 -11 9 -13c230,-338 473,-676 708,-1004 50,-69 99,-138 149,-207l27 -38 8 45c171,930 722,1768 1513,2298l34 24zm-4868 6933l0 0 4 -19c63,-355 126,-701 188,-1026l53 -277 4 -5c169,-167 343,-344 516,-527l17 -17 13 20c369,545 720,1108 1044,1673l4 7 -2 8c-36,143 -74,282 -113,414l-4 15 -16 -1c-565,-53 -1133,-141 -1689,-261l-19 -4zm1858 -378l0 0c-309,-532 -641,-1059 -985,-1568l-9 -12 11 -12c133,-142 263,-284 386,-423l14 -15 627 619 -1 10c0,5 -1,9 0,15 13,209 20,421 20,630 0,231 -38,799 -38,799l-25 -43zm179 -169l0 0c11,-196 18,-395 18,-590 0,-157 -4,-316 -12,-473l-3 -48 830 783 -836 364 3 -36zm1132 -268l0 0c195,-67 388,-137 582,-208 339,-124 676,-253 1012,-386 330,-131 658,-266 985,-405 125,-54 250,-108 375,-163 330,-144 658,-294 984,-447l7 -4 16 6c352,99 685,259 989,474l7 5 7 46 -7 7c-520,543 -1209,924 -2104,1164 -764,205 -1580,283 -2418,352l-9 0 -456 -430 30 -11zm2931 205l0 0c852,-234 1517,-592 2031,-1095l27 -27 6 38c47,296 88,554 127,789l2 9 -7 7c-636,680 -1420,1228 -2267,1585l-7 3 -7 -3c-619,-233 -1254,-451 -1888,-649l-3 -2 -3 -2c-8,-7 -37,-27 -74,-53 -87,-61 -218,-153 -280,-211l-32 -30 43 -4c722,-60 1556,-143 2332,-355zm-1795 856l0 0c510,163 1024,341 1528,528l39 15 -645 379 -11 -10c-145,-138 -290,-275 -436,-413l-556 -525 81 26zm-147 95l0 0c178,169 497,470 747,705l176 167c103,97 173,163 180,170l10 9 -5 12c-199,489 -431,971 -690,1432l-10 18 -17 -11c-341,-218 -641,-407 -918,-577l-49 -30 5 -15c222,-621 394,-1258 510,-1896l6 -35 55 51zm-746 1928l0 0 14 8 -6 15c-37,100 -75,200 -114,297 -50,125 -104,254 -162,385l-20 45 -389 -1152 45 26c209,121 421,248 632,376zm121 101l0 0 8 -22 20 12c284,174 588,366 932,585l15 10 -9 16c-270,468 -574,924 -902,1354l-22 29 -389 -1150 4 -7c124,-272 240,-550 343,-827zm-44 2094l0 0 -7 9c-113,144 -229,285 -345,420 -5,6 -9,13 -12,21l-6 13 -14 -1c-253,-25 -518,-57 -790,-95l-30 -4 17 -26c291,-442 558,-914 792,-1401l21 -43 374 1107zm-194 449l0 0c72,-85 146,-176 222,-271l22 -28 121 358 -29 -2c-131,-9 -230,-17 -323,-25l-38 -3 25 -29zm737 46l0 0c320,-134 657,-239 1001,-311l68 -15 -50 48c-138,129 -287,246 -441,347l-6 3 -6 0c-148,-10 -296,-19 -439,-27l-204 -13 77 -32zm827 57l0 0c407,-307 749,-711 989,-1170l10 -19 18 12c306,197 555,357 783,502l14 8 -6 15c-120,338 -296,605 -539,816 -9,8 -41,40 -41,40 -270,-57 -519,-99 -760,-126 -139,-16 -289,-30 -458,-44l-51 -4 41 -30zm-1033 101l0 0c110,6 814,67 814,67 16,2 59,72 71,86 24,29 48,59 72,89 47,59 93,118 138,178 192,254 370,519 531,793 162,273 308,556 437,846 65,146 125,294 182,443 28,74 56,150 82,225 24,69 10,121 1,191 -8,61 -15,121 -23,182 -25,191 -50,383 -75,574 -13,105 -27,209 -40,313l-6 5c-54,44 -109,87 -164,130 -24,18 -337,245 -374,269 -50,34 -100,67 -150,99 -100,65 -202,129 -304,192 -198,123 -398,241 -599,359 -90,54 -180,107 -271,161 -57,34 -113,68 -170,103l-42 26 14 -48c225,-777 339,-1586 339,-2404 0,-980 -162,-1940 -482,-2854l-10 -27 29 2zm1999 4302l0 0 19 -14c105,-80 560,-462 647,-540l2 -2c212,-135 460,-198 699,-178l40 3 -1010 1093 -14 -14c-119,-117 -241,-228 -365,-332l-18 -16zm1541 -705l0 0 12 4c20,5 39,11 58,18 76,27 150,62 218,105 149,92 275,221 366,370 45,75 82,155 109,238 28,89 41,179 52,271 3,20 1,28 -7,47 -15,35 -29,71 -44,106 -30,72 -61,144 -91,216 -94,222 -190,444 -287,665 -97,222 -196,443 -296,664l-16 36 -19 -36c-287,-562 -658,-1081 -1104,-1541l-13 -13 1062 -1150zm-1138 1262l0 0c462,477 844,1025 1136,1627l4 8 -4 9c-182,397 -376,808 -578,1222l-12 23 -19 -17c-502,-451 -1069,-825 -1686,-1112 -106,-49 -216,-97 -328,-142l-26 -10 1499 -1622 14 14zm-1945 3815l0 0c-1,4 -101,1256 -101,1256l-31 -41c-284,-383 -608,-735 -962,-1045l-4 -3 -86 -250 11 -8c165,-129 330,-257 484,-376l11 -9 678 476zm-251 2963l0 0 -21 5c-395,91 -791,175 -1175,251l-14 3 -7 -13c-321,-625 -490,-1329 -490,-2035 0,-222 17,-445 50,-662l1 -8 6 -4c178,-151 375,-312 601,-491l22 -17 1027 2971zm-3826 -573l0 0 3 -2c64,-41 377,-259 440,-308l19 -14 10 21c233,492 567,947 967,1315l29 27 -39 6c-385,63 -1174,165 -1178,164 -272,-92 -469,-348 -490,-636 -1,-14 -2,-29 -2,-44 0,-193 90,-390 241,-529zm1622 1013l0 0 -9 2 -7 -6c-445,-388 -797,-857 -1046,-1392l-7 -14 12 -10c243,-199 471,-424 692,-640 79,-78 161,-159 244,-238 155,-149 319,-299 502,-457l38 -33 -6 49c-19,169 -28,340 -28,509 0,710 166,1418 481,2048l12 23 -25 5c-290,56 -577,108 -853,154zm381 -2902l0 0 -28 24c-153,132 -291,255 -421,375l-6 6 -8 0 -3 0c-168,6 -341,5 -514,-4l-9 0 -7 -9c-317,-335 -655,-662 -1004,-973l-74 -65 94 32c638,224 1292,428 1944,604l36 10zm1937 2797l0 0 5 -13c39,-90 74,-170 108,-244 1,-2 2,-4 2,-5l4 -10 10 -3c7,-1 77,-13 567,-88l36 -6 -16 33c-169,363 -267,572 -317,676l-12 24 -387 -364zm7356 -73l0 0 118 -48c262,-106 507,-249 728,-426l67 -53 12 84c43,302 80,554 116,793l26 170 -91 -58c-265,-171 -553,-312 -855,-419l-121 -43zm10295 -1459l0 0 16 -35c148,-310 290,-621 424,-925l4 -8 8 -3c5,-2 9,-4 13,-6l9 -7 11 5c404,207 813,424 1214,643l49 27 -1748 309zm2032 -285l0 0c-501,-278 -1010,-550 -1514,-808l-17 -8 8 -17c81,-187 159,-371 232,-548l6 -16 17 5c307,87 625,177 943,270l9 3c0,0 254,782 344,1096l13 45 -41 -22zm-456 -1380l0 0 79 85 -103 -54c-1040,-546 -2121,-1057 -3214,-1519l-34 -15 32 -19c260,-164 1037,-661 1066,-680l13 -8 11 11c724,714 1447,1454 2150,2199zm-2402 -2194l0 0 -11 -9 -1465 -1179 27 -13c263,-132 523,-259 770,-377l8 -4 244 122 806 1215 -69 45c-24,16 -49,33 -74,49l-5 2c-10,3 -19,9 -27,17l-4 4c-38,25 -77,49 -116,74l-84 54zm-218 -1355l0 0 233 116c442,222 824,413 1039,519l30 15 -28 19c-175,115 -359,235 -563,368l-16 10 -695 -1047zm1425 542l0 0c-86,-204 -168,-416 -243,-631l-13 -37 37 12c275,87 548,171 813,251l40 11 -34 23c-189,126 -381,254 -571,379l-20 13 -9 -21zm-166 -100l0 0 19 48 -46 -23c-244,-122 -618,-310 -1051,-527l-394 -280c98,-46 196,-92 295,-137l7 -4 7 3c304,103 615,206 925,305l10 3 3 10c68,201 144,403 225,602zm-1680 -812l0 0 -8 4 -9 -4c-362,-182 -889,-446 -1293,-646l15 -36 1655 514 -46 21c-126,58 -223,104 -314,147zm-450 -542l0 0 -177 -852 10 -7c463,-365 989,-779 1149,-899l11 -8 12 8 1838 1246 -33 14c-612,250 -1229,517 -1835,795l-7 3 -968 -300zm1106 -1851l0 0 22 -16c256,-190 490,-360 713,-518l18 -13 10 19c292,517 587,1054 877,1596l38 70 -1678 -1138zm-608 292l0 0 -41 31 11 -51c88,-418 167,-850 235,-1281l3 -17 17 0c314,11 845,30 854,24 0,0 148,220 209,326l8 15 -14 11c-483,341 -939,682 -1282,942zm-836 -6901l0 0 6 13 -640 621 -2068 -43 -4 -14c-168,-596 -346,-1193 -527,-1774l-10 -30 31 5c251,40 788,113 1308,183 648,87 1318,178 1485,212l10 2 7 17c136,261 271,533 402,808zm-941 -1071l0 0c-22,-5 -79,-16 -180,-35l-19 -3 3 -19c15,-92 40,-227 65,-357 28,-154 58,-313 69,-392l7 -52 723 7 -21 30c-195,277 -403,547 -620,802 -2,3 -4,6 -7,10l-7 11 -13 -2zm-172 -855l0 0 -2 15c-12,87 -41,245 -72,413 -23,124 -47,253 -62,348l-4 20 -19 -4c-291,-54 -1031,-131 -1521,-182 -235,-24 -421,-43 -483,-52l-12 -2 -3 -12c-84,-266 -160,-503 -232,-723l-4 -10 7 -8c138,-176 276,-351 415,-527 7,-9 1992,724 1992,724zm132 -120l0 0 3 -21c13,-92 42,-298 75,-528l2 -10 8 -4c517,-292 1028,-607 1518,-938l59 -40 -30 64c-243,513 -526,1009 -841,1476l-6 9 -788 -8zm135 -724l0 0 -34 19 5 -39c26,-183 74,-511 97,-661l2 -11c0,0 129,-817 158,-995l5 -30 25 17c387,266 784,525 1182,770l26 16 -25 16c-467,316 -951,618 -1441,898zm1561 -993l0 0c-434,-265 -1306,-861 -1306,-861 32,-189 66,-390 109,-633l3 -20 20 5c545,117 1105,204 1666,258l23 2 -7 23c-125,404 -274,806 -445,1193l-2 5 -50 34 -11 -6zm-618 -5130l0 0 20 0 0 3 -1 2c-42,191 -86,397 -135,628l-7 31 -25 -20c-297,-243 -614,-464 -942,-655l-21 -12 17 -18c113,-124 216,-239 316,-352l6 -7 10 1c285,23 553,116 797,275l11 8 -21 92c-3,8 -5,16 -5,24l-20 0zm794 -1760l0 0c120,20 365,60 730,119l61 10 -56 27c-171,81 -345,167 -519,256l-14 7 -354 -408 149 -12 3 1zm102 -101l0 0 -95 -16 94 -22c242,-58 490,-147 780,-282l21 -10 135 484 -30 -5c-336,-55 -632,-103 -905,-149zm-651 -26l0 0 39 -1 -23 32c-307,413 -638,824 -1013,1256l-32 37 -2 -49c-15,-367 -77,-730 -184,-1080l-6 -20 20 -5c461,-113 842,-167 1201,-170zm-1329 222l0 0c120,391 182,796 185,1203 0,5 1,10 2,15l3 10 -7 7c-85,97 -175,197 -267,298l-19 20 -13 -24c-232,-425 -427,-873 -578,-1331l-6 -19 19 -6c214,-63 434,-128 657,-186l18 -5 6 18zm1134 1412l0 0c-210,-129 -443,-213 -692,-249l-36 -6 24 -26c370,-428 714,-856 1023,-1273l8 -11 12 3c6,2 12,2 17,2l5 0 3 2c2,1 3,1 5,1l20 6 -5 18c-66,274 -133,555 -203,859l-2 6 -5 4c-14,13 -17,27 -17,38 0,7 2,14 4,21l2 6 -1 5c-49,213 -92,403 -132,582l-6 27 -24 -15zm327 -790l0 0c47,-201 97,-409 147,-618l9 -36 357 412 -22 11c-158,83 -314,168 -463,252l-38 22 10 -43zm754 -235l0 0c207,-106 415,-207 617,-301 8,-4 14,-8 19,-14l7 -8 174 28 -526 514 -13 -15c-5,-5 -10,-9 -15,-12l-295 -176 32 -16zm-3829 36l0 0 36 -8c216,-50 448,-112 731,-193l12 -4 8 10c5,5 11,10 19,13l7 4 3 8c159,478 363,942 605,1378l7 13 -10 10c-214,233 -437,467 -681,716l-31 31 -3 -43c-48,-711 -163,-1434 -676,-1910l-27 -25zm1218 1615l0 0c81,-85 168,-178 267,-284l8 -9 11 3c8,2 17,3 25,1l7 -2 7 4c352,205 688,440 996,699l9 8 -3 11c-54,258 -107,519 -159,777l-5 27 -24 -14c-498,-305 -1034,-543 -1596,-709l-31 -9 23 -23c182,-185 330,-337 465,-480zm-561 600l0 0c6,4 11,6 17,8 588,168 1150,418 1671,742l11 7 -3 13c-25,126 -49,252 -74,379l0 3 -2 2c-5,10 -7,21 -6,31l1 4 -1 3c-48,250 -96,503 -141,752l-9 49 -27 -43c-443,-713 -1166,-1219 -1984,-1389l-36 -7 26 -25c209,-204 378,-371 532,-527l12 -11 13 9zm-675 655l0 0c889,155 1675,720 2102,1512l4 6 -2 6c-60,337 -121,685 -180,1034l-6 38 -27 -28c-566,-584 -1236,-1045 -1990,-1372l-3 -1 -2 -2c-4,-4 -8,-7 -12,-9l-700 -413 46 -43 4 -2c19,-5 33,-17 36,-32l2 -6 4 -4c266,-253 497,-474 707,-678l7 -7 10 1zm3868 2139l0 0c-565,-53 -1134,-141 -1689,-261l-19 -4 4 -19c62,-355 126,-701 187,-1026l54 -277 4 -5c169,-167 343,-344 516,-527l17 -17 13 20c369,545 720,1108 1044,1673l4 7 -2 8c-36,143 -74,282 -113,414l-4 15 -16 -1zm-1378 -1837l0 0 -46 46 35 -180 75 -373c12,-62 25,-123 38,-184l18 -88 26 36c69,99 142,204 230,332l9 13 -11 11c-127,134 -253,264 -374,387zm453 -505l0 0c-100,-146 -189,-272 -271,-388 -6,-8 -13,-14 -21,-19l-12 -6 11 -53c11,-57 23,-114 35,-171l1 -4c3,-6 4,-12 4,-18l1 -4c21,-99 42,-199 63,-298l8 -35 590 583 -13 14c-115,129 -238,264 -366,401l-17 18 -13 -20zm-74 -1078l0 0 1251 -1225 13 10c10,7 21,11 35,10l693 -24 -23 32c-430,601 -895,1187 -1382,1743l-14 15 -573 -561zm-68 -97l0 0 20 -92c9,-44 18,-87 28,-130l64 -287c40,-177 83,-366 132,-578l2 -8 7 -4c204,-117 416,-233 630,-345l9 -5 366 218 -1258 1231zm1987 -1781l0 0c3,-3 5,-5 8,-9l7 -10 468 75 -17 25c-98,146 -199,294 -303,441l-5 8 -725 25 567 -555zm372 426l0 0c89,-130 163,-238 231,-340l7 -10 12 2c134,21 267,41 401,62l74 11 -70 26c-215,80 -427,173 -630,277l-69 35 44 -63zm-5280 -106l0 0 17 -4 6 17c3,9 8,17 16,24 561,487 649,1230 695,2013l0 9 -6 6c-164,166 -341,341 -556,551l-31 31 -2 -44c-33,-942 -504,-1845 -1262,-2413l-41 -31 51 -4c155,-13 292,-26 420,-40 220,-25 447,-63 693,-115zm-1346 176l0 0c845,551 1370,1522 1370,2534 0,14 0,29 0,43l0 8 -6 6c-200,194 -413,398 -648,622l-21 19 -11 -26c-467,-1126 -1102,-2169 -1887,-3099l-24 -29 37 -3c258,-23 521,-38 776,-54 132,-7 268,-16 402,-24l7 -1 5 4zm-1353 104l0 0c3,8 6,13 11,19 816,952 1470,2023 1942,3183l5 12 -10 9c-4,4 -62,59 -152,143 -226,214 -646,610 -854,807l-54 50 -6 -35c-263,-1445 -829,-2857 -1638,-4083l-17 -26 31 -4c248,-35 491,-64 722,-87l15 -1 5 13zm1505 3801l0 0c133,-126 266,-251 399,-377l10 -10 595 350 -39 14c-461,172 -932,335 -1399,484l-81 26 515 -487zm1119 44l0 0 7 -3 7 3c773,326 1488,826 2068,1447l7 7 -2 9c-35,215 -73,451 -115,722l-6 37 -27 -26c-1021,-999 -2526,-1202 -3980,-1324l-44 -4 32 -29c56,-53 177,-138 257,-195 33,-22 61,-42 67,-48l3 -2 4 -1c578,-181 1157,-380 1722,-593zm-2190 976l0 0c765,63 1510,134 2206,321 817,219 1446,567 1921,1063l6 7 -6 44 -7 5c-277,196 -582,342 -905,433 -1,0 -1,0 -2,1 -1,0 -2,1 -4,1l-7 3 -8 -3c-1167,-551 -2375,-1044 -3591,-1469l-31 -10 420 -396 8 0zm-695 448l0 0 32 10 -765 722 3 -48c8,-176 0,-872 -6,-973l-2 -36 31 18c224,128 462,231 707,307zm-854 -312l0 0c9,137 14,276 16,415l1 6 -700 1120 166 -1562 0 -3 0 -19 20 -1c232,10 389,18 479,26l17 2 1 16zm-632 -26l0 0c-1,4 -2,6 -2,9l-190 1790 -24 -11c-214,-93 -445,-198 -727,-331l-14 -6 262 -1464c1,-4 1,-8 1,-12l-1 -24 21 1c207,7 446,15 656,23l23 1 -5 24zm-1066 1400l0 0 -188 -89c-150,-71 -305,-144 -458,-216l-12 -5 0 -13c4,-383 34,-763 90,-1130 0,-2 0,-4 0,-6l0 -22 20 1c235,8 497,17 751,26l57 2 -260 1452zm-684 -1464l0 0c-53,357 -83,717 -90,1070l0 30 -27 -12c-768,-354 -1600,-705 -2484,-885l-13 -3 -2 -14c-23,-170 -43,-327 -63,-479l-3 -25 1939 263 7 -8 10 1c101,12 326,25 708,40l22 1 -4 21zm2347 -46l0 0c-123,-10 -344,-22 -696,-35l-102 -4 97 -34c210,-73 418,-161 619,-262l21 -11 6 23c28,103 53,204 75,299l6 26 -26 -2zm-1094 -75l0 0c-12,3 -21,9 -28,17l-6 7 -9 -1c-114,-4 -230,-8 -346,-12 -166,-6 -334,-11 -495,-17l-65 -3 56 -33c342,-206 1512,-841 1687,-929l20 -10 7 21c63,182 123,370 176,559l5 15 -15 8c-312,160 -645,287 -987,378zm-1007 -109l0 0 7 -42c145,-863 241,-1743 284,-2615l5 -94 798 2126 -15 8c-350,190 -701,390 -1043,595l-36 22zm90 -3035l0 0 672 0 6 9c91,142 179,284 259,424l33 56 -970 -489zm94 178l0 0 -1 12c-38,939 -137,1883 -294,2805l-5 31 -26 -19c-278,-206 -574,-385 -882,-531l-16 -8 6 -16c280,-799 538,-1619 766,-2438l4 -14 95 0 353 178zm-1770 2192l0 0 0 1 68 168 -76 -89c-649,-752 -1259,-1549 -1814,-2370l-3 -4 0 -6c-4,-123 -4,-245 2,-362l1 -13 29 -10c6,-3 13,-5 20,-8 374,-136 774,-300 1223,-502l3 -1c7,-2 13,-4 17,-8l7 -3 39 -18 -13 42c-60,190 -91,417 -91,673 0,1095 542,2402 588,2510zm-1942 -2605l0 0c-2,71 -3,146 -2,220l0 10 -3 2c-1,5 -2,15 -2,35 0,327 191,1858 1069,2838l35 39 -52 -7c-542,-68 -1092,-140 -1634,-214l-17 -2 0 -17c10,-891 56,-1789 134,-2671 1,-12 -1,-22 -6,-31l-3 -5 9 -73 12 -4c151,-46 297,-93 435,-140l26 -9 -1 29zm-875 124l0 0 -50 14c-236,66 -476,130 -708,191 -219,57 -445,117 -666,179l-8 2 -8 -5c-849,-521 -1446,-1423 -1597,-2412 -1,-7 -3,-14 -7,-20l-7 -11 8 -10c245,-344 428,-610 595,-863l18 -26 1414 2444c33,37 628,336 969,495l47 22zm-4869 8465l0 0 6 -16c67,-179 324,-997 339,-1055 8,-28 101,-407 101,-407l968 -380 239 225 -2 11c-134,736 -368,1448 -695,2115l-9 18 -18 -10c-319,-180 -618,-342 -914,-493l-15 -8zm1761 -1489l0 0 7 -35 637 602 -2 10c-115,660 -287,1317 -512,1951l-8 23 -20 -12c-273,-167 -530,-318 -783,-463l-16 -9 8 -17c319,-648 551,-1338 689,-2050zm-2163 5171l0 0c210,38 397,69 572,97 661,106 1278,178 1887,222l12 1 5 12c330,922 498,1891 498,2880 0,511 -46,1023 -136,1524l-10 51 -26 -45c-433,-716 -832,-1462 -1188,-2217l-1 -4 0 -4c-1,-11 -4,-21 -10,-31 -487,-847 -1033,-1673 -1622,-2455l-30 -40 49 9zm1693 2994l0 0c332,672 696,1333 1083,1964 2,3 4,6 8,10l6 8 -2 9c-55,260 -122,516 -199,762 -1,4 -1,8 -2,12l-1 9 -8 5c-242,151 -491,315 -763,501l-30 20 0 -37c-1,-1081 -44,-2175 -129,-3252l-7 -101 44 90zm1173 2757l0 0c146,-88 295,-176 439,-261 407,-239 827,-487 1216,-766l12 -8 12 9c134,112 266,231 392,356l14 13 -13 14 -1521 1645 -12 -4c-469,-177 -958,-301 -1452,-371l-50 -7 42 -29c325,-220 626,-413 921,-591zm-1121 734l0 0c524,57 1045,179 1548,363l27 10 -1203 1303 -1395 -946 22 -16c366,-271 689,-504 988,-711l6 -4 7 1zm-1124 822l0 0 1705 1156 -73 57 -7 -1c-900,-42 -1804,-160 -2686,-350l-41 -9 33 -25c130,-101 294,-232 453,-360 215,-172 438,-351 593,-467l11 -8 12 7zm25429 5243l0 0 -4 -3c-1038,-686 -2116,-1343 -3205,-1953l-7 -4 -3 -8c-52,-183 -107,-371 -164,-558l-7 -22 1116 -148 7 6c893,780 1749,1621 2543,2501l12 13 -23 27c-44,51 -87,102 -131,153l-7 8 -127 -12zm-1267 -3502l0 0 827 188 -64 22c-171,60 -351,120 -537,177l-15 5 -211 -392zm650 28l0 0 -677 -153c-9,-2 -17,-2 -25,-1l-14 3 -98 -182 1609 -130 5 15c36,117 66,219 94,312l5 17 -16 7c-161,66 -329,132 -499,196l-6 2 -378 -86zm-889 -443l0 0 -3 -1c-10,-2 -21,-1 -31,3l-5 1 -405 33 -5 -4c-329,-230 -655,-475 -970,-730l-20 -16 71 -49 7 0c959,95 1925,175 2873,241l13 1 4 12c39,119 77,238 113,352l7 23 -1649 134zm1457 -643l0 0c-870,-60 -1753,-133 -2624,-217l-53 -5 706 -488 1816 176 5 11c61,175 116,337 169,498l10 27 -29 -2zm-2857 -240l0 0 -67 -6c-59,-6 -118,-12 -178,-18l-26 -3 11 -24c73,-168 226,-516 226,-516l741 79 -707 488zm-746 771l0 0c-6,7 -9,15 -10,23l-1 6 -172 412 -20 -21c-627,-664 -1276,-1328 -1929,-1976l-40 -39 56 6c886,99 1788,152 2682,157l28 0 -594 1432zm630 -1548l0 0c-863,-3 -1737,-50 -2598,-142l-94 -10 91 -28c770,-235 1541,-509 2293,-814l13 -5 472 604 -164 395 -13 0zm-2561 -314l0 0 -133 41 116 -76c165,-107 1469,-971 1469,-971 118,-79 237,-158 354,-238l16 -10 370 474 -24 10c-707,286 -1437,545 -2168,770zm1225 -2586l0 0 -2 -4c-335,-630 -680,-1260 -1026,-1873l-8 -15 14 -11c50,-34 99,-69 147,-102l6 -4 7 1c1396,153 2737,761 3777,1710l10 10 -6 13c-267,543 -552,1100 -847,1654l-10 19 -2062 -1398zm2967 -430l0 0c-502,-451 -1069,-825 -1686,-1112 -616,-286 -1267,-479 -1935,-573l-50 -7 42 -29c325,-220 626,-414 921,-591 147,-89 295,-177 439,-261 407,-239 827,-487 1216,-766l12 -8 12 9c693,578 1244,1282 1638,2093l4 8 -4 9c-182,397 -377,808 -578,1222l-12 23 -19 -17zm1531 -13737l0 0c-636,680 -1420,1228 -2267,1585l-7 3 -7 -3c-619,-233 -1254,-451 -1888,-649l-4 -2 -3 -2c-7,-7 -35,-26 -73,-53 -87,-61 -219,-153 -280,-211l-32 -30 43 -4c722,-60 1556,-143 2332,-355 852,-234 1517,-592 2031,-1095l27 -27 6 38c46,295 88,553 127,789l1 9 -6 7zm-4299 1070l0 0 -1 10c-143,818 -371,1625 -680,2398 -309,774 -700,1516 -1161,2207l-7 10 -12 -2c-309,-45 -631,-98 -984,-162l-29 -5 16 -25c253,-398 483,-810 689,-1235 146,-302 261,-617 400,-921 72,-158 175,-307 260,-459 85,-154 167,-309 242,-468 286,-610 496,-1254 624,-1915l7 -35 636 602zm-1034 401l0 0c-103,313 -226,621 -368,919 -71,150 -147,297 -226,442 -79,143 -179,273 -248,422 -59,127 -102,264 -157,393 -268,631 -589,1239 -959,1815 0,0 -968,-147 -1288,-214l-31 -7 20 -24c230,-275 451,-567 657,-868l2 -3c6,-6 10,-12 13,-19l2 -3c736,-1085 1272,-2274 1593,-3534l1 -5 4 -4c7,-8 16,-21 16,-38 0,-5 -1,-10 -3,-16l-1 -5 1 -6c17,-69 32,-130 45,-186l3 -16 16 1c12,0 24,-3 36,-10 263,-156 545,-279 839,-366l7 -2 7 3c13,6 28,6 44,1l19 -7 239 226 -2 10c-69,373 -162,741 -281,1101zm-887 -1111l0 0 -32 18 2 -36c12,-196 18,-395 18,-590 0,-157 -4,-316 -11,-473l-3 -48 830 783 -32 10c-268,83 -528,196 -772,336zm375 -935l0 0 1066 -421 710 74 946 98 -72 29c-676,276 -1366,536 -2050,773l-11 4 -589 -557zm1300 -513l0 0 2882 -1137 -53 60c-374,426 -771,843 -1179,1241l-6 7 -1644 -171zm-521 63l0 0 -837 330c-9,4 -18,9 -25,16l-13 14 -516 -504 1391 144zm-1318 126l0 0 -1 9c-1,5 -1,9 0,15 13,209 20,421 20,630 0,231 -8,465 -25,695 -1,9 0,16 3,24l1 5 -17 75 -25 -43c-310,-532 -641,-1060 -985,-1567l-9 -13 11 -12c133,-142 263,-284 386,-423l14 -15 627 620zm3522 -2545l0 0c-9,-7 -20,-11 -32,-11l-2320 -129 66 -33c269,-134 551,-247 837,-336l4 -1 80 12c42,6 83,13 125,19l1639 222 -41 29c-100,69 -207,141 -336,228l-11 8 -11 -8zm-11315 -1l0 0 12 -2 7 11c839,1257 1420,2709 1679,4200l1 11 -585 552 -6 -35c-171,-881 -496,-1717 -967,-2482 -5,-9 -12,-16 -20,-21l-6 -3 -2 -6c-273,-718 -618,-1406 -1026,-2047l-15 -24 28 -5c324,-59 618,-108 900,-149zm-1030 211l0 0c326,510 801,1514 1055,2068 9,21 15,33 16,35 479,780 806,1636 971,2543l2 10 -220 208 -19 -7c-14,-5 -27,-4 -38,1l-7 3 -7 -2c-268,-80 -526,-192 -766,-334 -11,-6 -21,-9 -32,-8l-16 0 -4 -16c-357,-1562 -1091,-3040 -2124,-4274l-21 -25 32 -7c205,-42 552,-100 806,-142 171,-28 332,-55 348,-60l15 -6 9 13zm-856 -4l0 0c0,0 0,1 -1,2l-5 13 -10 2c-269,55 -528,109 -838,175l-35 7 13 -33c91,-228 184,-453 278,-668l3 -6 222 -112c315,-157 601,-300 798,-398l4 -3 70 1 -12 28c-155,336 -319,669 -487,992zm-2458 269l0 0 -10 16 -5 3c-33,15 -62,28 -85,39l-11 5 -9 -8c-409,-330 -791,-709 -1166,-1158l-17 -20 24 -10c4,-2 7,-3 10,-5 418,-266 858,-496 1308,-682l28 -11 -67 1831zm177 60l0 0 36 -17c306,-148 901,-445 1442,-716l47 -24 -20 49c-168,394 -327,799 -474,1203l-8 21 -1023 -516zm984 626l0 0 -6 17c-275,774 -511,1570 -702,2366l-15 62 -22 -60c-307,-820 -451,-1490 -451,-2107 0,-276 30,-546 88,-803l3 -12 12 -2c2,-1 4,-1 6,-2l8 -3 1079 544zm-9434 14764l0 0 5 -20 93 32c200,71 406,143 629,220l8 3 3 8c100,269 197,543 289,817l10 31 -32 -6c-419,-77 -847,-161 -1273,-249l-24 -5 10 -22c118,-263 212,-535 282,-809zm-343 -2536l0 0 -18 -36 39 8c245,49 466,92 676,131l7 1 5 6c619,810 1191,1667 1701,2549l2 5c1,6 3,12 5,16 3,6 5,11 8,16l8 18 1 4c109,1229 164,2481 164,3720l0 97 -8 6c-564,390 -1113,801 -1529,1115l-41 31 11 -51c272,-1290 443,-2611 506,-3926l0 -4c0,-11 -3,-21 -8,-30l-3 -6 1 -6c1,-9 0,-19 -3,-29 -411,-1244 -924,-2467 -1524,-3635zm26019 9735l0 0 -22 -41 22 -7c254,-80 504,-165 741,-253l6 -2 648 147 3 11c60,215 120,441 179,674l9 35 -1586 -564zm944 -378l0 0 59 -23c93,-36 183,-73 270,-108l20 -9 6 21c13,46 26,91 39,137l21 76 -415 -94zm-561 -2806l0 0c118,301 232,605 339,904l10 29 -1626 -157 1170 -808 104 23 3 9zm-1456 758l0 0 -7 0 -836 -81 11 -25c81,-183 162,-366 244,-549 35,-80 71,-159 106,-238l5 -10 10 -1c46,-8 91,-15 137,-22 119,-19 596,-91 647,-89 66,3 131,19 194,37 59,16 121,28 182,41 77,17 154,34 231,52 90,20 180,40 271,60l-1195 825zm662 -1063l0 0 115 -13c178,-20 352,-38 517,-53l14 -1 25 62c14,34 28,67 41,101l6 14 -55 38 -663 -148zm-1047 28l0 0 -36 6 15 -33c46,-102 169,-312 175,-313 325,-54 651,-99 968,-133 123,-13 248,-25 384,-37l15 -1 5 13c36,84 72,172 111,266l10 25 -26 2c-539,50 -1085,119 -1621,205zm-358 330l0 0 -412 -527 24 -9c234,-97 469,-198 698,-300l45 -20 -355 856zm-472 -627l0 0 -14 6 -386 -494 18 -12c146,-100 293,-200 439,-300l11 -7 703 476 -32 15c-243,108 -491,215 -739,316zm2149 -2303l0 0 -64 48 35 -72c145,-301 472,-883 487,-883 305,2 612,27 913,72l68 10 -63 27c-488,210 -951,479 -1376,798zm-1008 -13456l0 0c-763,205 -1579,283 -2417,352l-9 0 -456 -430 30 -11c736,-256 1480,-541 2211,-845l6 -1c9,-1 18,-5 27,-11l4 -3 23 -9 5 0c17,1 30,-4 39,-16l3 -4 5 -2c545,-229 1089,-470 1615,-718l7 -4 15 6c353,99 686,259 990,474l7 5 7 46 -7 7c-520,543 -1209,924 -2105,1164zm2040 -1422l0 0c-213,-137 -444,-250 -686,-336l-48 -17 47 -19c210,-86 407,-201 585,-343l27 -21 5 34c34,239 63,441 93,634l14 92 -37 -24zm-973 -415l0 0c-6,2 -12,5 -17,9l-4 2c-423,199 -861,397 -1302,586l-92 39 70 -71c381,-384 754,-789 1109,-1204l3 -4 5 -2 1025 -404 3 24c21,157 47,343 74,538l2 10 -8 7c-252,220 -544,378 -868,470zm-52 -857l0 0 48 -58c224,-271 443,-549 651,-826 3,-4 5,-7 7,-11l6 -13 43 6 2 14c22,169 45,347 72,545l2 15 -831 328zm566 -899l0 0c-253,335 -519,667 -789,985l-3 4 -5 1 -3351 1323 -4 -1 -1439 -149 57 -30c1342,-701 2650,-1493 3888,-2354 7,-5 13,-11 18,-18l6 -10 1642 223 -20 26zm-17010 -918l0 0 -8 14c-210,375 -431,748 -656,1109l-39 61 63 -1712 640 528zm-9469 18318l0 0 62 -542 21 4c245,51 449,92 642,129 213,42 437,84 686,130l16 3 -1 17c-4,87 -9,179 -15,282l-2 18 -1409 -41z"/>
  </g>
 </g>
</svg>
